<svg width="1304" height="1025" xmlns="http://www.w3.org/2000/svg" xmlns:xlink="http://www.w3.org/1999/xlink" xml:space="preserve" overflow="hidden"><defs><filter id="fx0" x="-10%" y="-10%" width="120%" height="120%" filterUnits="userSpaceOnUse" primitiveUnits="userSpaceOnUse"><feComponentTransfer color-interpolation-filters="sRGB"><feFuncR type="discrete" tableValues="0 0"/><feFuncG type="discrete" tableValues="0 0"/><feFuncB type="discrete" tableValues="0 0"/><feFuncA type="linear" slope="0.4" intercept="0"/></feComponentTransfer><feGaussianBlur stdDeviation="6.11111 6.11111"/></filter><clipPath id="clip1"><rect x="1980" y="1025" width="1304" height="1025"/></clipPath><clipPath id="clip2"><path d="M1992.5 1037.5 1992.5 2017.5 3251.5 2017.5 3251.5 1037.5ZM1980 1025 3284 1025 3284 2050 1980 2050Z" fill-rule="evenodd" clip-rule="evenodd"/></clipPath></defs><g clip-path="url(#clip1)" transform="translate(-1980 -1025)"><g clip-path="url(#clip2)"><g filter="url(#fx0)" transform="translate(1979 1024)"><g><rect x="23.2225" y="23.2227" width="1259" height="980" stroke="#000000" stroke-width="7" stroke-miterlimit="8" fill="#FFFFFF"/></g></g></g><rect x="1992.5" y="1037.5" width="1259" height="980" stroke="#000000" stroke-width="6.875" stroke-miterlimit="8" fill="#FFFFFF"/><path d="M2115.5 1527.5C2115.5 1410.42 2335.33 1315.5 2606.5 1315.5 2877.67 1315.5 3097.5 1410.42 3097.5 1527.5 3097.5 1644.58 2877.67 1739.5 2606.5 1739.5 2335.33 1739.5 2115.5 1644.58 2115.5 1527.5Z" stroke="#000000" stroke-width="6.875" stroke-miterlimit="8" stroke-dasharray="55 20.625" fill="none" fill-rule="evenodd"/><g><g><g><path d="M2238.26 1733.11C2238.26 1761.53 2261.3 1784.56 2289.72 1784.56 2318.13 1784.56 2341.17 1761.53 2341.17 1733.11 2341.17 1704.7 2318.13 1681.66 2289.72 1681.66 2261.3 1681.66 2238.26 1704.7 2238.26 1733.11Z" fill="#E9EAEB"/><path d="M2329.16 1719.39 2320.58 1719.39 2320.58 1712.53 2325.73 1712.53 2339.79 1691.95 2361.75 1691.95 2361.75 1698.81 2343.22 1698.81ZM2327.45 1729.68 2365.18 1729.68 2365.18 1736.54 2327.45 1736.54Z" fill="#2A5082"/><path d="M2351.46 1695.38C2351.46 1701.07 2356.06 1705.67 2361.75 1705.67 2367.43 1705.67 2372.04 1701.07 2372.04 1695.38 2372.04 1689.7 2367.43 1685.09 2361.75 1685.09 2356.06 1685.09 2351.46 1689.7 2351.46 1695.38Z" fill="#A3D4FF"/><path d="M2361.75 1709.1C2354.2 1709.1 2348.03 1702.93 2348.03 1695.38 2348.03 1687.84 2354.2 1681.66 2361.75 1681.66 2369.29 1681.66 2375.47 1687.84 2375.47 1695.38 2375.47 1702.93 2369.29 1709.1 2361.75 1709.1ZM2361.75 1688.52C2357.97 1688.52 2354.89 1691.61 2354.89 1695.38 2354.89 1699.16 2357.97 1702.24 2361.75 1702.24 2365.52 1702.24 2368.61 1699.16 2368.61 1695.38 2368.61 1691.61 2365.52 1688.52 2361.75 1688.52ZM2361.75 1774.27 2339.79 1774.27 2326.07 1753.69 2320.59 1753.69 2320.59 1746.83 2329.85 1746.83 2343.22 1767.41 2361.75 1767.41Z" fill="#2A5082"/><path d="M2351.46 1770.84C2351.46 1776.53 2356.06 1781.13 2361.75 1781.13 2367.43 1781.13 2372.04 1776.53 2372.04 1770.84 2372.04 1765.16 2367.43 1760.55 2361.75 1760.55 2356.06 1760.55 2351.46 1765.16 2351.46 1770.84Z" fill="#A3D4FF"/><path d="M2361.75 1784.56C2354.2 1784.56 2348.03 1778.39 2348.03 1770.84 2348.03 1763.3 2354.2 1757.12 2361.75 1757.12 2369.29 1757.12 2375.47 1763.3 2375.47 1770.84 2375.47 1778.39 2369.29 1784.56 2361.75 1784.56ZM2361.75 1763.98C2357.97 1763.98 2354.89 1767.07 2354.89 1770.84 2354.89 1774.62 2357.97 1777.7 2361.75 1777.7 2365.52 1777.7 2368.61 1774.62 2368.61 1770.84 2368.61 1767.07 2365.52 1763.98 2361.75 1763.98Z" fill="#2A5082"/><path d="M2354.89 1733.11C2354.89 1738.8 2359.49 1743.4 2365.18 1743.4 2370.86 1743.4 2375.47 1738.8 2375.47 1733.11 2375.47 1727.43 2370.86 1722.82 2365.18 1722.82 2359.49 1722.82 2354.89 1727.43 2354.89 1733.11Z" fill="#A3D4FF"/><path d="M2365.18 1746.83C2357.63 1746.83 2351.46 1740.66 2351.46 1733.11 2351.46 1725.57 2357.63 1719.39 2365.18 1719.39 2372.72 1719.39 2378.9 1725.57 2378.9 1733.11 2378.9 1740.66 2372.72 1746.83 2365.18 1746.83ZM2365.18 1726.25C2361.4 1726.25 2358.32 1729.34 2358.32 1733.11 2358.32 1736.89 2361.4 1739.97 2365.18 1739.97 2368.95 1739.97 2372.04 1736.89 2372.04 1733.11 2372.04 1729.34 2368.95 1726.25 2365.18 1726.25ZM2330.88 1803.77 2308.92 1770.84 2306.87 1770.84 2306.87 1763.98 2312.35 1763.98 2336.71 1800Z" fill="#2A5082"/><path d="M2324.01 1801.71C2324.01 1807.4 2328.62 1812 2334.3 1812 2339.99 1812 2344.59 1807.4 2344.59 1801.71 2344.59 1796.03 2339.99 1791.42 2334.3 1791.42 2328.62 1791.42 2324.01 1796.03 2324.01 1801.71Z" fill="#A3D4FF"/><path d="M2334.3 1815.43C2326.76 1815.43 2320.58 1809.26 2320.58 1801.71 2320.58 1794.17 2326.76 1787.99 2334.3 1787.99 2341.85 1787.99 2348.03 1794.17 2348.03 1801.71 2348.03 1809.26 2341.85 1815.43 2334.3 1815.43ZM2334.3 1794.85C2330.53 1794.85 2327.45 1797.94 2327.45 1801.71 2327.45 1805.49 2330.53 1808.57 2334.3 1808.57 2338.08 1808.57 2341.17 1805.49 2341.17 1801.71 2341.17 1797.94 2338.08 1794.85 2334.3 1794.85ZM2312.35 1702.24 2289.71 1702.24 2289.71 1695.38 2308.92 1695.38 2331.22 1669.32 2336.36 1673.77Z" fill="#2A5082"/><path d="M2324.01 1671.37C2324.01 1677.06 2328.62 1681.66 2334.3 1681.66 2339.99 1681.66 2344.59 1677.06 2344.59 1671.37 2344.59 1665.69 2339.99 1661.08 2334.3 1661.08 2328.62 1661.08 2324.01 1665.69 2324.01 1671.37Z" fill="#A3D4FF"/><path d="M2334.3 1685.09C2326.76 1685.09 2320.58 1678.92 2320.58 1671.37 2320.58 1663.83 2326.76 1657.65 2334.3 1657.65 2341.85 1657.65 2348.03 1663.83 2348.03 1671.37 2348.03 1678.92 2341.85 1685.09 2334.3 1685.09ZM2334.3 1664.51C2330.53 1664.51 2327.45 1667.6 2327.45 1671.37 2327.45 1675.15 2330.53 1678.23 2334.3 1678.23 2338.08 1678.23 2341.17 1675.15 2341.17 1671.37 2341.17 1667.6 2338.08 1664.51 2334.3 1664.51Z" fill="#2A5082"/><path d="M2265.7 1654.22C2254.73 1654.22 2245.47 1661.43 2242.72 1671.37 2229 1671.72 2217.68 1684.75 2217.68 1700.53 2217.68 1701.9 2217.68 1702.93 2218.03 1704.3 2208.08 1709.1 2200.53 1721.79 2200.53 1736.54 2200.53 1746.15 2203.62 1754.72 2208.08 1760.9 2207.39 1764.33 2207.05 1768.1 2207.39 1771.87 2209.11 1787.99 2222.14 1799.31 2236.21 1797.94 2239.98 1807.89 2250.27 1815.43 2262.27 1815.43 2277.37 1815.43 2289.71 1803.77 2289.71 1789.71L2289.71 1678.23C2289.71 1665.2 2279.08 1654.22 2265.7 1654.22Z" fill="#A3D4FF"/><path d="M2262.27 1818.86C2249.93 1818.86 2238.95 1812 2234.15 1801.71 2219.4 1802.06 2206.02 1789.37 2204.31 1772.56 2203.96 1769.13 2203.96 1765.36 2204.65 1761.93 2199.85 1755.07 2197.1 1746.15 2197.1 1736.89 2197.1 1721.79 2203.96 1708.42 2214.25 1702.59L2214.25 1700.87C2214.25 1684.06 2225.57 1670.34 2240.32 1668.63 2244.44 1658.34 2254.73 1651.14 2265.7 1651.14 2280.8 1651.14 2293.14 1663.48 2293.14 1678.58L2293.14 1790.05C2293.14 1805.83 2279.43 1818.86 2262.27 1818.86ZM2238.61 1794.51 2239.64 1796.91C2243.07 1805.83 2251.98 1812 2262.27 1812 2275.65 1812 2286.28 1802.06 2286.28 1789.71L2286.28 1678.23C2286.28 1666.91 2277.02 1657.65 2265.7 1657.65 2256.79 1657.65 2248.55 1663.83 2245.81 1672.4L2245.12 1674.8 2242.72 1674.8C2230.72 1675.15 2221.11 1686.81 2221.11 1700.53 2221.11 1701.56 2221.11 1702.59 2221.46 1703.62L2221.8 1706.02 2219.4 1707.05C2210.14 1711.16 2203.96 1723.17 2203.96 1736.2 2203.96 1744.78 2206.37 1752.66 2210.82 1758.5L2211.85 1759.87 2211.51 1761.58C2210.82 1764.67 2210.48 1768.1 2210.82 1771.53 2212.54 1785.59 2223.86 1795.88 2235.86 1794.51L2238.61 1794.51Z" fill="#2A5082"/><path d="M2265.7 1705.67C2250.61 1705.67 2238.26 1693.33 2238.26 1678.23 2238.26 1675.49 2238.61 1673.09 2239.29 1670.34L2245.81 1672.4C2245.12 1674.46 2245.12 1676.18 2245.12 1678.23 2245.12 1689.55 2254.39 1698.81 2265.7 1698.81L2265.7 1705.67ZM2241.69 1740.66C2238.61 1740.66 2235.86 1739.97 2233.12 1738.26L2236.55 1732.43C2242.72 1736.2 2249.93 1731.74 2254.73 1726.25 2260.22 1719.74 2267.76 1715.96 2274.62 1715.96 2280.11 1715.96 2284.91 1718.36 2288.69 1722.48 2290.4 1724.54 2291.77 1726.6 2292.8 1728.65L2286.63 1731.4C2285.94 1729.68 2284.91 1727.97 2283.54 1726.6 2281.14 1723.85 2278.05 1722.48 2274.62 1722.48 2269.48 1722.48 2263.99 1725.57 2259.87 1730.37 2254.39 1737.23 2247.87 1740.66 2241.69 1740.66ZM2285.26 1692.3C2275.31 1692.3 2266.39 1686.12 2262.62 1675.83L2269.14 1673.43C2272.22 1682.01 2280.45 1686.81 2289.03 1684.75L2290.4 1691.61C2288.34 1692.3 2286.97 1692.3 2285.26 1692.3ZM2268.79 1789.71 2262.27 1787.31C2266.39 1775.65 2278.05 1769.13 2290.06 1771.53L2288.69 1778.39C2280.11 1776.33 2272.22 1781.13 2268.79 1789.71Z" fill="#2A5082"/><path d="M2238.26 1709.1 2231.4 1709.1C2231.4 1700.19 2239.64 1694.01 2247.87 1691.95L2249.58 1698.47C2244.1 1700.19 2238.26 1703.96 2238.26 1709.1ZM2237.58 1777.7C2229.35 1775.65 2221.11 1769.47 2221.11 1760.55L2227.97 1760.55C2227.97 1765.7 2233.81 1769.47 2238.95 1770.84L2237.58 1777.7Z" fill="#2A5082"/><path d="M2235.18 1804.11C2232.78 1799.66 2231.4 1794.85 2231.4 1790.05 2231.4 1774.96 2243.41 1762.61 2258.84 1761.24L2258.84 1760.9C2258.84 1752.66 2268.79 1743.75 2275.99 1743.75L2275.99 1750.61C2272.56 1750.61 2265.7 1756.78 2265.7 1760.9L2265.7 1767.76 2262.27 1767.76C2248.9 1767.76 2238.26 1777.7 2238.26 1790.05 2238.26 1793.82 2239.29 1797.6 2241.35 1800.68L2235.18 1804.11ZM2221.11 1750.26 2221.11 1743.4C2225.92 1743.4 2229.69 1739.63 2229.69 1734.83 2229.69 1730.03 2225.92 1726.25 2221.11 1726.25L2221.11 1719.39C2229.69 1719.39 2236.55 1726.25 2236.55 1734.83 2236.55 1743.4 2229.69 1750.26 2221.11 1750.26ZM2289.72 1712.53 2300 1712.53 2300 1719.39 2289.71 1719.39ZM2306.86 1712.53 2313.72 1712.53 2313.72 1719.39 2306.86 1719.39ZM2306.86 1746.83 2313.72 1746.83 2313.72 1753.69 2306.86 1753.69ZM2289.71 1746.83 2300.01 1746.83 2300.01 1753.69 2289.71 1753.69ZM2289.71 1763.98 2300.01 1763.98 2300.01 1770.84 2289.71 1770.84ZM2289.71 1729.68 2306.86 1729.68 2306.86 1736.54 2289.71 1736.54ZM2313.72 1729.68 2320.58 1729.68 2320.58 1736.54 2313.72 1736.54Z" fill="#2A5082"/><path d="M2286.28 1647.36 2293.14 1647.36 2293.14 1822.29 2286.28 1822.29ZM2286.28 1626.78 2293.14 1626.78 2293.14 1640.5 2286.28 1640.5ZM2286.28 1829.15 2293.14 1829.15 2293.14 1842.87 2286.28 1842.87Z" fill="#2A5082"/></g></g></g><g><g><g><path d="M77.7774 174.585 27.7226 174.585C20.2012 174.585 14.0806 169.45 14.0806 163.14L14.0806 88.8052C14.0806 82.4951 20.2012 77.3602 27.7226 77.3602L137.438 77.3602C144.959 77.3602 151.08 82.4951 151.08 88.8052L151.08 126.815C151.08 128.037 150.092 129.024 148.87 129.024 147.651 129.026 146.661 128.038 146.66 126.819 146.66 126.817 146.66 126.816 146.66 126.815L146.66 88.8052C146.66 84.9306 142.522 81.7798 137.438 81.7798L27.7226 81.7798C22.6388 81.7798 18.5002 84.9306 18.5002 88.8052L18.5002 163.14C18.5002 167.015 22.6388 170.166 27.7226 170.166L77.7774 170.166C78.9994 170.166 79.9872 171.153 79.9872 172.375 79.9872 173.597 78.9994 174.585 77.7774 174.585Z" transform="matrix(1 0 0 1.00459 2853 1224)"/><path d="M93.6293 150.279 71.5334 150.279C70.8862 150.279 70.2688 149.994 69.8451 149.498 69.4255 149.003 69.2456 148.348 69.3534 147.708L72.5765 128.356C72.7234 127.494 72.4509 126.638 71.8463 126.055 68.0185 122.365 66.3686 117.009 67.4352 111.731 68.6615 105.655 73.5899 100.825 79.6956 99.7158 84.3047 98.8749 88.9521 100.09 92.4839 103.043 96.0179 105.996 98.0467 110.324 98.0467 114.925 98.0467 119.227 96.2308 123.37 93.0587 126.297 92.618 126.704 92.4201 127.385 92.5371 128.083L95.8093 147.708C95.9178 148.346 95.7369 149.002 95.3175 149.498 94.8966 149.994 94.2794 150.279 93.6293 150.279ZM74.1391 145.86 91.0214 145.86 88.1771 128.807C87.8152 126.615 88.522 124.462 90.0676 123.046 92.3626 120.928 93.6271 118.039 93.6271 114.925 93.6271 111.64 92.1774 108.547 89.6525 106.435 87.0935 104.299 83.8512 103.461 80.4854 104.065 76.2084 104.842 72.6212 108.351 71.7675 112.602 70.999 116.396 72.1784 120.236 74.9141 122.874 76.5661 124.471 77.3219 126.793 76.9344 129.084L74.1391 145.86ZM124.564 81.7798C123.345 81.781 122.356 80.7935 122.355 79.5742 122.355 79.5728 122.355 79.5714 122.355 79.57L122.355 61.8937C122.355 39.9617 104.512 22.1193 82.5802 22.1193 60.6483 22.1193 42.8059 39.9596 42.8059 61.8915L42.8059 79.5678C42.8059 80.7898 41.8181 81.7777 40.5961 81.7777 39.3768 81.7788 38.3875 80.7914 38.3863 79.5721 38.3863 79.5707 38.3863 79.5693 38.3863 79.5678L38.3863 61.8915C38.3863 37.5241 58.2128 17.6976 82.5802 17.6976 106.948 17.6976 126.774 37.5241 126.774 61.8915L126.774 79.5678C126.774 80.792 125.786 81.7798 124.564 81.7798Z" transform="matrix(1 0 0 1.00459 2853 1224)"/><path d="M178.598 187.844 110.303 187.844C96.2712 187.844 84.7879 176.363 84.7879 162.329L84.7879 160.326C84.7879 146.294 96.2691 134.811 110.303 134.811L178.598 134.811C192.63 134.811 204.113 146.292 204.113 160.326L204.113 162.329C204.113 176.363 192.632 187.844 178.598 187.844Z" fill="#FFCE00" transform="matrix(1 0 0 1.00459 2853 1224)"/><path d="M109.096 161.328C109.096 164.99 112.064 167.958 115.725 167.958 119.387 167.958 122.355 164.99 122.355 161.328 122.355 157.667 119.387 154.699 115.725 154.699 112.064 154.699 109.096 157.667 109.096 161.328Z" transform="matrix(1 0 0 1.00459 2853 1224)"/><path d="M129.721 161.328C129.721 164.99 132.689 167.958 136.35 167.958 140.011 167.958 142.979 164.99 142.979 161.328 142.979 157.667 140.011 154.699 136.35 154.699 132.689 154.699 129.721 157.667 129.721 161.328Z" transform="matrix(1 0 0 1.00459 2853 1224)"/><path d="M150.343 161.328C150.343 164.99 153.311 167.958 156.973 167.958 160.634 167.958 163.602 164.99 163.602 161.328 163.602 157.667 160.634 154.699 156.973 154.699 153.311 154.699 150.343 157.667 150.343 161.328Z" transform="matrix(1 0 0 1.00459 2853 1224)"/><path d="M170.968 161.328C170.968 164.99 173.936 167.958 177.598 167.958 181.259 167.958 184.227 164.99 184.227 161.328 184.227 157.667 181.259 154.699 177.598 154.699 173.936 154.699 170.968 157.667 170.968 161.328Z" transform="matrix(1 0 0 1.00459 2853 1224)"/></g></g></g><g><g><g><path d="M2271.07 1398.63C2267.8 1398.63 2264.97 1396.02 2264.97 1392.53L2264.75 1280.48C2264.75 1278.95 2265.41 1277.42 2266.5 1276.12 2267.59 1275.03 2269.11 1274.37 2270.86 1274.37L2391.85 1274.15C2395.12 1274.15 2397.95 1276.77 2397.95 1280.26L2398.17 1392.31C2398.17 1395.58 2395.55 1398.41 2392.06 1398.41L2271.07 1398.63ZM2391.85 1276.55 2270.86 1276.77C2269.77 1276.77 2268.89 1277.21 2268.02 1277.86 2267.37 1278.51 2266.93 1279.6 2266.93 1280.69L2267.15 1392.75C2267.15 1394.93 2268.89 1396.67 2271.07 1396.67L2392.06 1396.45C2394.24 1396.45 2395.99 1394.71 2395.99 1392.53L2395.77 1280.48C2395.77 1278.3 2394.03 1276.55 2391.85 1276.55Z" fill="#3370FF"/><path d="M2383.34 1388.17 2279.58 1388.39C2277.18 1388.39 2275.43 1386.42 2275.43 1384.24L2275.22 1288.32C2275.22 1285.93 2277.18 1284.18 2279.36 1284.18L2383.13 1283.96C2385.52 1283.96 2387.27 1285.93 2387.27 1288.11L2387.49 1384.03C2387.49 1386.21 2385.52 1388.17 2383.34 1388.17" fill="#BACEFD"/><path d="M2290.26 1275.46C2289.6 1275.46 2289.17 1275.03 2289.17 1274.37 2289.17 1251.05 2307.92 1232.08 2331.24 1232.08 2354.57 1232.08 2373.53 1251.05 2373.53 1274.37 2373.53 1275.03 2373.1 1275.46 2372.44 1275.46 2371.79 1275.46 2371.35 1275.03 2371.35 1274.37 2371.57 1252.14 2353.48 1234.26 2331.46 1234.26 2309.22 1234.26 2291.35 1252.35 2291.35 1274.37 2291.35 1275.03 2290.69 1275.46 2290.26 1275.46ZM2347.81 1317.75C2347.81 1308.82 2340.4 1301.4 2331.46 1301.4 2322.52 1301.4 2315.11 1308.82 2315.11 1317.75 2315.11 1323.86 2318.6 1329.31 2323.61 1332.14L2317.94 1365.93 2344.32 1365.93 2339.96 1331.71C2344.54 1328.87 2347.81 1323.64 2347.81 1317.75" fill="#3370FF"/><path d="M2317.94 1367.02C2317.73 1367.02 2317.29 1366.8 2317.07 1366.59 2316.85 1366.37 2316.85 1365.93 2316.85 1365.71L2322.52 1332.58C2317.29 1329.53 2314.02 1323.86 2314.02 1317.54 2314.02 1312.96 2315.76 1308.6 2319.03 1305.11 2322.3 1301.84 2326.66 1300.1 2331.24 1300.1 2335.82 1300.1 2340.18 1301.84 2343.45 1305.11 2346.72 1308.38 2348.46 1312.74 2348.46 1317.32 2348.46 1323.2 2345.63 1328.65 2340.62 1331.92L2344.98 1365.5C2344.98 1365.71 2344.98 1366.15 2344.76 1366.37 2344.54 1366.59 2344.32 1366.8 2343.89 1366.8L2317.94 1367.02ZM2331.46 1302.49C2327.32 1302.49 2323.61 1304.02 2320.78 1307.07 2317.94 1310.12 2316.42 1313.83 2316.42 1317.75 2316.42 1323.42 2319.47 1328.44 2324.48 1331.05 2324.92 1331.27 2325.14 1331.71 2325.14 1332.14L2319.69 1364.62 2343.45 1364.62 2339.09 1331.71C2339.09 1331.27 2339.31 1330.83 2339.53 1330.62 2344.1 1327.78 2346.94 1322.99 2346.94 1317.54 2346.94 1313.39 2345.41 1309.69 2342.36 1306.85 2339.31 1304.24 2335.38 1302.49 2331.46 1302.49Z" fill="#FFFFFF"/><path d="M2374.19 1332.6C2374.19 1316.25 2387.7 1302.95 2404.27 1302.95 2420.84 1303.17 2434.14 1316.69 2433.92 1333.25 2433.7 1349.82 2420.19 1363.12 2403.84 1362.9 2387.27 1362.68 2373.97 1349.17 2374.19 1332.6" fill="#FFC60A"/><path d="M2362.42 1416.29 2409.94 1335.63C2410.38 1334.76 2410.16 1333.89 2409.29 1333.45L2400.13 1328C2399.26 1327.56 2398.39 1327.78 2397.95 1328.65L2350.64 1409.31C2350.21 1410.19 2350.43 1411.06 2351.3 1411.49L2360.45 1416.94C2361.11 1417.38 2361.98 1416.94 2362.42 1416.29" fill="#FFC60A"/><path d="M2354.57 1411.52 2357.84 1406.07C2358.27 1405.19 2359.36 1404.98 2360.02 1405.41L2373.97 1413.7C2374.84 1414.13 2375.06 1415.22 2374.62 1415.88L2371.35 1421.33C2370.92 1422.2 2369.83 1422.42 2368.96 1421.98L2355.22 1413.7C2354.35 1413.26 2354.13 1412.17 2354.57 1411.52" fill="#FFC60A"/><path d="M2363.72 1397.32 2366.99 1391.87C2367.43 1391 2368.52 1390.78 2369.17 1391.22L2383.13 1399.5C2384 1399.94 2384.22 1401.03 2383.78 1401.68L2380.51 1407.13C2380.07 1408.01 2378.98 1408.22 2378.33 1407.79L2364.38 1399.5C2363.51 1399.07 2363.29 1397.98 2363.72 1397.32" fill="#FFC60A"/><path d="M2309.44 1416.29C2309.01 1416.29 2308.57 1415.85 2308.35 1415.42 2297.02 1351.54 2240.99 1322.55 2240.55 1322.11 2240.12 1321.9 2239.9 1321.24 2240.12 1320.59 2240.34 1319.93 2240.99 1319.93 2241.64 1320.15 2242.3 1320.37 2296.14 1348.49 2309.66 1409.75 2311.4 1403.65 2315.33 1393.84 2324.27 1388.17 2331.68 1383.37 2341.05 1382.94 2351.95 1386.42 2352.61 1386.64 2352.82 1387.3 2352.61 1387.73 2352.39 1388.39 2351.73 1388.6 2351.3 1388.39 2341.05 1385.12 2332.33 1385.77 2325.57 1389.91 2313.37 1397.54 2310.75 1414.76 2310.75 1414.98 2310.53 1415.85 2310.1 1416.29 2309.44 1416.29Z" fill="#3370FF"/><path d="M2419.53 1333.01C2419.31 1333.01 2419.1 1333.01 2418.88 1332.8L2396.21 1319.5C2395.77 1319.28 2395.55 1318.63 2395.77 1317.97 2395.99 1317.32 2396.86 1317.32 2397.3 1317.54L2419.97 1330.83C2420.4 1331.05 2420.62 1331.71 2420.4 1332.36 2420.19 1332.8 2419.97 1333.01 2419.53 1333.01ZM2415.39 1339.55C2415.17 1339.55 2414.95 1339.55 2414.74 1339.34L2392.06 1326.04C2391.63 1325.82 2391.41 1325.17 2391.63 1324.51 2391.85 1324.08 2392.5 1323.86 2393.15 1324.08L2415.83 1337.37C2416.26 1337.59 2416.48 1338.25 2416.26 1338.9 2416.04 1339.34 2415.61 1339.55 2415.39 1339.55ZM2411.47 1346.31C2411.25 1346.31 2411.03 1346.31 2410.81 1346.09L2388.14 1332.8C2387.7 1332.58 2387.49 1331.92 2387.7 1331.27 2387.92 1330.83 2388.58 1330.62 2389.23 1330.83L2411.9 1344.13C2412.34 1344.35 2412.56 1345 2412.34 1345.66 2412.12 1346.09 2411.68 1346.31 2411.47 1346.31Z" fill="#FFFFFF"/></g></g></g><g><g><g><path d="M2984.06 1632.81 2983.93 1727.34C2965.42 1732.47 2951.6 1748.87 2950.33 1768.69L2854.44 1768.69 2854.44 1660.06 2881.69 1632.81 2984.06 1632.81ZM2983.92 1734.02 2983.88 1768.69 2956.74 1768.69C2957.95 1752.42 2968.98 1738.9 2983.92 1734.02Z" fill="#8ACBFA"/><path d="M2963.44 1734.62 2963.44 1748.25 2874.87 1748.25 2874.87 1734.62 2963.44 1734.62ZM2963.44 1707.8 2963.44 1721.43 2874.87 1721.43 2874.87 1707.8 2963.44 1707.8ZM2963.44 1680.12 2963.44 1693.75 2874.87 1693.75 2874.87 1680.12 2963.44 1680.12ZM2963.44 1653.24 2963.44 1666.87 2900 1666.87 2900 1653.24 2963.44 1653.24Z" fill="#FFFFFF"/><path d="M2953.64 1789.07 2868.49 1789.07 2868.49 1775.44 2950.39 1775.44C2950.77 1780.13 2951.87 1784.72 2953.64 1789.07ZM2996.22 1732.07C2999 1732.07 3001.7 1732.36 3004.31 1732.9L3004.31 1789.07 2960.64 1789.07C2958.55 1784.8 2957.25 1780.18 2956.8 1775.44L2990.69 1775.44 2990.69 1732.45C2992.52 1732.2 2994.37 1732.07 2996.22 1732.07ZM3004.31 1646.43 3004.31 1726.39C3001.64 1725.92 2998.93 1725.68 2996.22 1725.68 2994.35 1725.68 2992.5 1725.8 2990.69 1726.01L2990.69 1646.43 3004.31 1646.43Z" fill="#D9D9D9"/><path d="M2956.62 1771.67C2956.62 1793.54 2974.35 1811.27 2996.22 1811.27 3018.09 1811.27 3035.82 1793.54 3035.82 1771.67 3035.82 1749.8 3018.09 1732.07 2996.22 1732.07 2974.35 1732.07 2956.62 1749.8 2956.62 1771.67Z" fill="#FA8989"/><path d="M3012.28 1755.61C3014.05 1757.38 3014.05 1760.26 3012.28 1762.03L3002.65 1771.67 3012.28 1781.3C3014.05 1783.08 3014.05 1785.95 3012.28 1787.73 3010.51 1789.5 3007.63 1789.5 3005.86 1787.73L2996.22 1778.09 2986.59 1787.73C2984.81 1789.5 2981.94 1789.5 2980.17 1787.73 2978.39 1785.95 2978.39 1783.08 2980.17 1781.3L2989.8 1771.67 2980.17 1762.03C2978.39 1760.26 2978.39 1757.38 2980.17 1755.61 2981.94 1753.84 2984.81 1753.84 2986.59 1755.61L2996.22 1765.24 3005.86 1755.61C3007.63 1753.84 3010.51 1753.84 3012.28 1755.61Z" fill="#FFFFFF"/></g></g></g><path d="M2282.5 1521.5C2282.5 1465.17 2434.72 1419.5 2622.5 1419.5 2810.28 1419.5 2962.5 1465.17 2962.5 1521.5 2962.5 1577.83 2810.28 1623.5 2622.5 1623.5 2434.72 1623.5 2282.5 1577.83 2282.5 1521.5Z" stroke="#000000" stroke-width="6.875" stroke-miterlimit="8" stroke-dasharray="55 20.625" fill="none" fill-rule="evenodd"/><text font-family="Arial,Arial_MSFontService,sans-serif" font-weight="700" font-size="48" transform="matrix(1 0 0 1 2232.27 1894)">LLM</text><text font-family="Arial,Arial_MSFontService,sans-serif" font-weight="700" font-size="48" transform="matrix(1 0 0 1 2255.97 1193)">NIZK</text><text font-family="Arial,Arial_MSFontService,sans-serif" font-weight="700" font-size="48" transform="matrix(1 0 0 1 2877.72 1213)">BBS+</text><text font-family="Arial,Arial_MSFontService,sans-serif" font-weight="700" font-size="48" transform="matrix(1 0 0 1 2838.16 1864)">Onchain </text><text font-family="Arial,Arial_MSFontService,sans-serif" font-weight="700" font-size="48" transform="matrix(1 0 0 1 2804.36 1922)">Revocation</text></g></svg>