<svg width="899" height="957" xmlns="http://www.w3.org/2000/svg" xmlns:xlink="http://www.w3.org/1999/xlink" xml:space="preserve" overflow="hidden"><defs><filter id="fx0" x="-10%" y="-10%" width="120%" height="120%" filterUnits="userSpaceOnUse" primitiveUnits="userSpaceOnUse"><feComponentTransfer color-interpolation-filters="sRGB"><feFuncR type="discrete" tableValues="0 0"/><feFuncG type="discrete" tableValues="0 0"/><feFuncB type="discrete" tableValues="0 0"/><feFuncA type="linear" slope="0.4" intercept="0"/></feComponentTransfer><feGaussianBlur stdDeviation="6.11111 6.11111"/></filter><clipPath id="clip1"><rect x="1682" y="653" width="899" height="957"/></clipPath><clipPath id="clip2"><path d="M1694.5 665.5 1694.5 1577.5 2548.5 1577.5 2548.5 665.5ZM1682 653 2581 653 2581 1610 1682 1610Z" fill-rule="evenodd" clip-rule="evenodd"/></clipPath></defs><g clip-path="url(#clip1)" transform="translate(-1682 -653)"><g clip-path="url(#clip2)"><g filter="url(#fx0)" transform="translate(1681 652)"><g><rect x="23.2225" y="23.2227" width="854" height="912" stroke="#000000" stroke-width="7" stroke-miterlimit="8" fill="#FFFFFF"/></g></g></g><rect x="1694.5" y="665.5" width="854" height="912" stroke="#000000" stroke-width="6.875" stroke-miterlimit="8" fill="#FFFFFF"/><path d="M1838.06 1217.56 1838.06 1078.09 2131.51 1078.09 2128.08 1081.53 2128.08 968.417 2134.95 968.417 2134.95 1084.97 1841.5 1084.97 1844.94 1081.53 1844.94 1217.56ZM2117.76 973 2131.51 945.5 2145.26 973Z" fill="#747474"/><path d="M0-3.4375 139.468-3.4375 139.468 290.014 136.03 286.576 249.144 286.576 249.144 293.451 132.593 293.451 132.593 0 136.03 3.4375 0 3.4375ZM244.56 276.264 272.06 290.014 244.56 303.764Z" fill="#747474" transform="matrix(-6.12323e-17 -1 -1 6.12323e-17 2424.51 1217.56)"/><g><g><g><path d="M2076.88 1273.59C2068.79 1273.59 2064.62 1269.43 2064.62 1261.34 2064.62 1253.26 2068.79 1249.09 2076.88 1249.09L2204.27 1249.09C2204.27 1249.09 2209.18 1249.09 2209.18 1253.99L2209.18 1273.59 2076.88 1273.59Z" fill="#C89005"/><path d="M2209.18 1276.04 2076.88 1276.04C2067.32 1276.04 2062.18 1270.9 2062.18 1261.34 2062.18 1251.79 2067.32 1246.64 2076.88 1246.64L2204.27 1246.64C2207.21 1246.64 2211.62 1248.6 2211.62 1253.99L2211.62 1273.59C2211.62 1275.06 2210.4 1276.04 2209.18 1276.04ZM2204.27 1251.54 2076.88 1251.54C2070.01 1251.54 2067.07 1254.48 2067.07 1261.34 2067.07 1268.2 2070.01 1271.15 2076.88 1271.15L2206.72 1271.15 2206.72 1253.99C2206.72 1252.03 2205.25 1251.54 2204.27 1251.54Z" fill="#231C1C"/><path d="M2207.71 1311.57C2208.19 1314.27 2206.48 1316.72 2203.78 1317.45L2088.64 1340.97C2085.94 1341.46 2083.49 1339.75 2082.75 1337.05L2068.54 1267.47C2068.05 1264.77 2069.77 1262.32 2072.47 1261.59L2187.61 1238.07C2190.31 1237.58 2192.76 1239.29 2193.49 1241.99L2207.71 1311.57Z" fill="#C11F29"/><path d="M2087.66 1343.42C2084.23 1343.42 2081.28 1340.97 2080.55 1337.54L2066.34 1267.96C2065.85 1266 2066.34 1264.04 2067.32 1262.32 2068.3 1260.61 2070.01 1259.63 2071.98 1259.14L2187.12 1235.62C2191.04 1234.88 2194.96 1237.33 2195.7 1241.25L2209.91 1310.83C2210.65 1314.76 2208.19 1318.68 2204.27 1319.41L2089.12 1342.93C2088.64 1343.42 2088.15 1343.42 2087.66 1343.42ZM2188.59 1240.52 2188.1 1240.52 2072.96 1264.04C2071.73 1264.28 2070.75 1265.51 2070.99 1266.98L2085.21 1336.56C2085.45 1337.79 2086.68 1338.77 2088.15 1338.52L2203.29 1315C2204.03 1314.76 2204.52 1314.51 2204.76 1314.02 2205.01 1313.53 2205.25 1312.8 2205.01 1312.06L2190.8 1242.48C2190.8 1241.25 2189.82 1240.52 2188.59 1240.52Z" fill="#231C1C"/><path d="M2198.64 1267.47C2198.89 1269.18 2197.17 1271.15 2194.47 1271.64L2079.32 1295.16C2076.63 1295.65 2074.18 1294.67 2073.94 1292.95L2072.22 1284.86C2071.98 1283.15 2073.69 1281.19 2076.39 1280.7L2191.53 1257.18C2194.23 1256.69 2196.68 1257.67 2196.93 1259.38L2198.64 1267.47Z" fill="#513328"/><path d="M2077.85 1297.85C2074.67 1297.85 2071.98 1296.14 2071.49 1293.44L2069.77 1285.6C2069.03 1282.42 2071.73 1279.23 2075.9 1278.49L2191.04 1254.97C2194.96 1254.24 2198.64 1255.95 2199.38 1259.14L2201.09 1267.22C2201.82 1270.41 2199.13 1273.59 2194.96 1274.33L2079.81 1297.85 2077.85 1297.85ZM2193 1259.63 2192.02 1259.63 2076.88 1283.15C2075.41 1283.4 2074.67 1284.13 2074.67 1284.62L2076.39 1292.46C2076.63 1292.7 2077.61 1292.95 2078.83 1292.7L2193.98 1269.18C2195.46 1268.94 2196.19 1268.2 2196.19 1267.96L2194.47 1260.12C2194.47 1259.88 2193.98 1259.63 2193 1259.63ZM2132.21 1309.43 2153.81 1304.99 2154.8 1309.79 2133.2 1314.23ZM2119.76 1321.94 2170.17 1311.59 2171.15 1316.39 2120.75 1326.75Z" fill="#231C1C"/><path d="M2194.72 1348.32C2193.98 1351.02 2191.29 1352.49 2188.59 1351.51L2069.03 1315C2066.58 1314.27 2065.11 1311.57 2065.85 1308.88L2087.41 1238.56C2088.15 1235.86 2090.84 1234.39 2093.53 1235.37L2213.34 1271.88C2215.79 1272.61 2217.26 1275.31 2216.52 1278.01L2194.72 1348.32Z" fill="#B8CA43"/><path d="M2190.06 1354.45C2189.33 1354.45 2188.59 1354.45 2187.86 1354.2L2068.3 1317.45C2066.34 1316.96 2064.87 1315.49 2063.89 1313.78 2062.91 1312.06 2062.91 1310.1 2063.4 1308.14L2084.96 1237.82C2086.19 1233.9 2090.1 1231.7 2094.02 1232.92L2213.83 1269.43C2217.75 1270.65 2219.71 1274.82 2218.73 1278.49L2197.17 1348.81C2196.68 1350.77 2195.46 1352.24 2193.74 1353.22 2192.51 1353.96 2191.29 1354.45 2190.06 1354.45ZM2092.06 1237.58C2091.08 1237.58 2090.1 1238.31 2089.86 1239.29L2068.3 1309.61C2068.05 1310.34 2068.05 1310.83 2068.54 1311.57 2068.79 1312.06 2069.28 1312.55 2070.01 1312.8L2189.57 1349.3C2190.06 1349.55 2190.8 1349.3 2191.29 1349.06 2191.78 1348.81 2192.27 1348.32 2192.51 1347.59L2214.07 1277.27C2214.56 1276.04 2213.83 1274.57 2212.6 1274.33L2092.55 1237.82C2092.31 1237.58 2092.31 1237.58 2092.06 1237.58Z" fill="#231C1C"/><path d="M2188.35 1328.48 2199.86 1290.99C2194.72 1289.52 2192.02 1283.89 2193.49 1278.74L2105.78 1252.03C2104.31 1257.18 2098.68 1260.12 2093.78 1258.65L2082.26 1296.14C2087.41 1297.6 2090.1 1303.24 2088.64 1308.39L2176.1 1335.09C2177.81 1329.95 2183.21 1327.01 2188.35 1328.48Z" fill="#B8CA43"/><path d="M2177.81 1338.03 2085.7 1309.85 2086.43 1307.41C2086.92 1305.45 2086.92 1303.48 2085.94 1301.77 2084.96 1300.06 2083.49 1298.83 2081.77 1298.34L2079.32 1297.6 2092.31 1255.46 2094.76 1256.2C2098.44 1257.42 2102.6 1255.22 2103.82 1251.3L2104.56 1248.85 2196.68 1277.03 2195.94 1279.47C2195.46 1281.43 2195.46 1283.4 2196.44 1285.11 2197.42 1286.82 2198.89 1288.05 2200.6 1288.54L2203.05 1289.28 2190.06 1331.42 2187.61 1330.68C2183.94 1329.46 2179.77 1331.66 2178.55 1335.58L2177.81 1338.03ZM2091.57 1306.67 2174.88 1332.15C2177.08 1327.74 2181.73 1325.29 2186.64 1325.78L2196.93 1292.46C2194.96 1291.23 2193.25 1289.52 2192.02 1287.56 2190.8 1285.35 2190.55 1283.15 2190.8 1280.7L2107.5 1255.22C2105.29 1259.63 2100.4 1262.08 2095.74 1261.59L2085.45 1294.67C2087.41 1295.89 2089.12 1297.6 2090.35 1299.56 2091.33 1301.77 2091.82 1304.22 2091.57 1306.67Z" fill="#231C1C"/><path d="M2130.94 1326.32C2147.5 1331.39 2165.42 1320.81 2170.95 1302.69 2176.49 1284.58 2167.56 1265.78 2150.99 1260.72 2134.43 1255.66 2116.52 1266.24 2110.98 1284.35 2105.44 1302.47 2114.37 1321.26 2130.94 1326.32Z" fill="#E1E0A6"/><path d="M2139.35 1329.95C2136.41 1329.95 2133.23 1329.46 2130.28 1328.48 2121.71 1325.78 2114.6 1319.66 2110.44 1311.08 2106.52 1302.51 2105.78 1292.7 2108.73 1283.4 2111.67 1274.08 2117.54 1266.24 2125.63 1261.59 2133.72 1256.69 2143.02 1255.46 2151.6 1258.16 2169.48 1263.55 2179.04 1283.89 2173.16 1303.24 2168.5 1319.41 2154.29 1329.95 2139.35 1329.95ZM2142.53 1261.83C2137.64 1261.83 2132.73 1263.3 2128.08 1266 2120.97 1270.16 2115.83 1277.03 2113.38 1285.11 2110.93 1293.19 2111.42 1301.77 2114.85 1309.12 2118.28 1316.47 2124.16 1321.61 2131.51 1323.82 2146.7 1328.48 2163.36 1318.68 2168.5 1301.77 2173.65 1284.86 2165.32 1267.47 2150.13 1262.81 2147.93 1262.32 2145.23 1261.83 2142.53 1261.83Z" fill="#231C1C"/><path d="M2128.6 1325.61 2148.63 1259.99 2153.32 1261.43 2133.29 1327.04Z" fill="#231C1C"/><path d="M2137.39 1319.9C2135.92 1319.9 2134.7 1319.66 2133.23 1319.17 2129.3 1317.94 2126.12 1315.24 2124.41 1311.57 2122.94 1308.14 2122.69 1304.46 2123.67 1301.04L2128.32 1302.51C2127.59 1304.95 2127.83 1307.41 2128.81 1309.61 2130.04 1312.06 2132 1314.02 2134.7 1314.76 2139.84 1316.22 2145.23 1313.29 2146.7 1308.14 2148.17 1302.99 2145.47 1297.6 2140.33 1295.89 2132.73 1293.44 2128.32 1285.35 2130.77 1277.52 2132 1273.84 2134.45 1270.65 2137.88 1268.94 2141.31 1266.98 2145.23 1266.73 2148.91 1267.71 2152.58 1268.94 2155.76 1271.39 2157.48 1274.82 2159.2 1278.25 2159.69 1282.17 2158.46 1286.09L2153.8 1284.62C2154.54 1282.17 2154.29 1279.47 2153.07 1277.27 2151.84 1275.06 2149.89 1273.35 2147.44 1272.61 2144.98 1271.88 2142.29 1272.12 2140.08 1273.35 2137.88 1274.57 2136.17 1276.53 2135.43 1279.23 2133.96 1284.38 2136.66 1289.77 2141.8 1291.48 2149.4 1293.93 2153.8 1302.02 2151.35 1309.85 2149.4 1315.73 2143.51 1319.9 2137.39 1319.9Z" fill="#231C1C"/><path d="M2216.52 1366.7C2216.52 1369.39 2214.32 1371.6 2211.62 1371.6L2069.52 1371.6C2066.83 1371.6 2064.62 1369.39 2064.62 1366.7L2064.62 1261.34C2064.62 1268.69 2069.52 1273.59 2076.88 1273.59L2211.62 1273.59C2214.32 1273.59 2216.52 1275.8 2216.52 1278.49L2216.52 1366.7Z" fill="#EEBE00"/><path d="M2211.62 1374.05 2069.52 1374.05C2065.36 1374.05 2062.18 1370.86 2062.18 1366.7L2062.18 1261.34C2062.18 1259.88 2063.16 1258.89 2064.62 1258.89 2066.09 1258.89 2067.07 1259.88 2067.07 1261.34 2067.07 1267.22 2070.99 1271.15 2076.88 1271.15L2211.62 1271.15C2215.79 1271.15 2218.97 1274.33 2218.97 1278.49L2218.97 1366.7C2218.97 1370.86 2215.54 1374.05 2211.62 1374.05ZM2067.07 1272.61 2067.07 1366.7C2067.07 1368.17 2068.05 1369.15 2069.52 1369.15L2211.62 1369.15C2213.09 1369.15 2214.07 1368.17 2214.07 1366.7L2214.07 1278.49C2214.07 1277.03 2213.09 1276.04 2211.62 1276.04L2076.88 1276.04C2072.96 1276.04 2069.52 1274.82 2067.07 1272.61Z" fill="#231C1C"/><path d="M2216.52 1334.85 2187.86 1334.85C2181.98 1334.85 2177.32 1330.44 2177.32 1325.05L2177.32 1320.15C2177.32 1314.76 2181.98 1310.34 2187.86 1310.34L2216.77 1310.34 2216.77 1334.85Z" fill="#C89005"/><path d="M2216.52 1337.3 2187.86 1337.3C2180.75 1337.3 2174.88 1331.91 2174.88 1325.05L2174.88 1320.15C2174.88 1313.29 2180.75 1307.9 2187.86 1307.9L2216.77 1307.9C2218.24 1307.9 2219.22 1308.88 2219.22 1310.34L2219.22 1334.85C2218.97 1336.32 2217.99 1337.3 2216.52 1337.3ZM2187.86 1312.8C2183.45 1312.8 2179.77 1315.98 2179.77 1320.15L2179.77 1325.05C2179.77 1329.21 2183.45 1332.4 2187.86 1332.4L2214.32 1332.4 2214.32 1312.8 2187.86 1312.8Z" fill="#231C1C"/><path d="M2077.36 1283.4 2089.12 1283.4 2089.12 1288.29 2077.36 1288.29Z" fill="#231C1C"/><path d="M2096.97 1283.4 2108.73 1283.4 2108.73 1288.29 2096.97 1288.29Z" fill="#231C1C"/><path d="M2116.56 1283.4 2128.32 1283.4 2128.32 1288.29 2116.56 1288.29Z" fill="#231C1C"/><path d="M2136.17 1283.4 2147.93 1283.4 2147.93 1288.29 2136.17 1288.29Z" fill="#231C1C"/><path d="M2155.76 1283.4 2167.52 1283.4 2167.52 1288.29 2155.76 1288.29Z" fill="#231C1C"/><path d="M2175.36 1283.4 2187.12 1283.4 2187.12 1288.29 2175.36 1288.29Z" fill="#231C1C"/><path d="M2194.96 1283.4 2206.72 1283.4 2206.72 1288.29 2194.96 1288.29Z" fill="#231C1C"/><path d="M2077.36 1356.9 2089.12 1356.9 2089.12 1361.8 2077.36 1361.8Z" fill="#231C1C"/><path d="M2096.97 1356.9 2108.73 1356.9 2108.73 1361.8 2096.97 1361.8Z" fill="#231C1C"/><path d="M2116.56 1356.9 2128.32 1356.9 2128.32 1361.8 2116.56 1361.8Z" fill="#231C1C"/><path d="M2136.17 1356.9 2147.93 1356.9 2147.93 1361.8 2136.17 1361.8Z" fill="#231C1C"/><path d="M2155.76 1356.9 2167.52 1356.9 2167.52 1361.8 2155.76 1361.8Z" fill="#231C1C"/><path d="M2175.36 1356.9 2187.12 1356.9 2187.12 1361.8 2175.36 1361.8Z" fill="#231C1C"/><path d="M2194.96 1356.9 2206.72 1356.9 2206.72 1361.8 2194.96 1361.8Z" fill="#231C1C"/><path d="M2184.68 1322.59C2184.68 1325.3 2186.87 1327.49 2189.57 1327.49 2192.28 1327.49 2194.47 1325.3 2194.47 1322.59 2194.47 1319.89 2192.28 1317.7 2189.57 1317.7 2186.87 1317.7 2184.68 1319.89 2184.68 1322.59Z" fill="#231C1C"/></g></g></g><text font-family="Arial,Arial_MSFontService,sans-serif" font-weight="700" font-size="48" transform="matrix(1 0 0 1 2058.77 1460)">Identity </text><text font-family="Arial,Arial_MSFontService,sans-serif" font-weight="700" font-size="48" transform="matrix(1 0 0 1 2073.39 1518)">Wallet</text><g><g><g><path d="M144.78 146.628 25.2767 146.628C16.0379 146.721 8.47241 139.307 8.37809 130.069L8.37809 55.5642C8.47241 46.3254 16.0379 38.912 25.2767 39.0052L56.6599 39.0052 56.6599 30.7258C56.7261 24.1263 62.1297 18.8301 68.7291 18.8963 68.7295 18.8963 68.7299 18.8964 68.7303 18.8964L102.531 18.8964C109.13 18.8315 114.533 24.1267 114.602 30.7258L114.602 39.0052 144.78 39.0052C154.018 38.912 161.584 46.3254 161.678 55.5642L161.678 130.069C161.584 139.307 154.018 146.721 144.78 146.628ZM104.945 34.2538C104.911 30.9552 102.21 28.3084 98.9119 28.3409L72.3533 28.3409C69.0536 28.3064 66.3507 30.9534 66.3162 34.2531 66.3162 34.2533 66.3162 34.2535 66.3162 34.2538L66.3162 39.0016 104.945 39.0016 104.945 34.2538Z" fill="#40A9FF" transform="matrix(1 0 0 1.00595 2339 1227)"/><path d="M137.475 139.323 28.9289 139.323C19.5939 139.323 15.6824 131.909 15.6824 122.764L15.6824 62.8686C15.6824 53.7381 19.5976 46.3096 28.9289 46.3096L56.6599 46.3096 56.6599 38.0301C56.7261 31.4307 62.1297 26.1345 68.7291 26.2007 68.7295 26.2007 68.7299 26.2007 68.7303 26.2007L102.531 26.2007C109.13 26.1358 114.533 31.4311 114.602 38.0301L114.602 46.3096 137.475 46.3096C146.714 46.2163 154.28 53.6297 154.374 62.8686L154.374 122.764C154.28 132.003 146.714 139.416 137.475 139.323ZM104.945 41.5581C104.911 38.2596 102.21 35.6128 98.9119 35.6452L72.3533 35.6452C69.0536 35.6108 66.3507 38.2578 66.3162 41.5575 66.3162 41.5577 66.3162 41.5579 66.3162 41.5581L66.3162 46.3059 104.945 46.3059 104.945 41.5581Z" fill="#93CEFF" transform="matrix(1 0 0 1.00595 2339 1227)"/><path d="M62.4084 59.3296 58.391 63.347 62.9927 67.9487 58.391 72.5505 53.7892 67.9487 49.1875 72.5505 58.391 84.0548 64.1432 86.9327 68.7449 90.9501 80.8263 78.8724 76.8089 74.855 73.9346 68.5294ZM85.9941 115.124 102.674 130.657C105.349 130.968 108.051 130.968 110.727 130.657 111.413 130.032 121.081 120.303 121.081 120.303 121.114 117.581 120.726 114.871 119.93 112.268 119.2 111.198 111.603 103.736 107.107 99.3538 106.048 98.9373 104.945 98.6385 103.82 98.4627 103.82 98.4627 102.476 98.8571 101.001 99.1602ZM49.1802 116.274 49.1802 122.026 58.3837 131.23 64.7129 130.657 99.7994 94.9931C99.7994 94.9931 111.172 96.4868 117.056 88.6639 121.851 81.7437 121.851 72.5754 117.056 65.6552 112.052 70.7061 106.125 76.5861 106.125 76.5861L103.824 74.2853 113.605 63.9313C107.41 58.1215 97.9255 57.6352 91.1693 62.7809 83.35 68.5696 83.6933 81.1879 83.6933 81.1879Z" fill="#FFFFFF" transform="matrix(1 0 0 1.00595 2339 1227)"/><path d="M63.5844 62.9635 60.2974 66.2286 64.0373 69.9647 60.2974 73.6973 56.5576 69.9647 52.8178 73.6973 60.2974 83.0322 64.9722 85.366 68.712 88.6347 78.5291 78.8322 75.2421 75.5635 72.9047 70.4505ZM90.0554 115.555 103.612 128.159C105.786 128.412 107.983 128.412 110.157 128.159 110.712 127.655 118.557 119.758 118.557 119.758 118.591 117.544 118.281 115.337 117.637 113.217 117.041 112.348 110.869 106.278 107.217 102.739 106.357 102.398 105.461 102.153 104.547 102.009 104.547 102.009 103.452 102.33 102.257 102.575ZM56.4846 112.838 56.4846 117.505 63.9642 124.974 69.1065 124.506 101.275 91.9143C101.275 91.9143 110.518 93.1305 115.299 86.7794 119.215 82.5407 119.215 76.0039 115.299 71.7653 111.234 75.8593 106.417 80.6327 106.417 80.6327L100.895 75.1143 108.842 66.7143C108.842 66.7143 104.869 58.8329 94.2627 65.783 87.9079 70.4797 88.1854 80.7167 88.1854 80.7167Z" fill="#FFF298" transform="matrix(1 0 0 1.00595 2339 1227)"/></g></g></g><text font-family="Arial,Arial_MSFontService,sans-serif" font-weight="700" font-size="48" transform="matrix(1 0 0 1 2332.15 1460)">Verifier </text><text font-family="Arial,Arial_MSFontService,sans-serif" font-weight="700" font-size="48" transform="matrix(1 0 0 1 2364.24 1518)">SDK</text><g><g><g><path d="M1898.23 1379.55 1790.77 1379.55C1778.27 1379.55 1768.14 1369.42 1768.14 1356.92 1768.14 1353.8 1770.67 1351.27 1773.8 1351.27L1915.2 1351.27C1918.33 1351.27 1920.86 1353.8 1920.86 1356.92 1920.86 1369.42 1910.73 1379.55 1898.23 1379.55Z" fill="#FFFFFF"/><path d="M1782.28 1359.75 1909.55 1359.75C1912.67 1359.75 1915.2 1362.28 1915.2 1365.41 1915.2 1371.65 1910.14 1376.72 1903.89 1376.72L1787.94 1376.72C1781.69 1376.72 1776.63 1371.65 1776.63 1365.41 1776.63 1362.28 1779.16 1359.75 1782.28 1359.75Z" fill="#8BF0AD"/><path d="M1898.23 1382.38 1790.77 1382.38C1776.73 1382.38 1765.31 1370.96 1765.31 1356.92 1765.32 1352.24 1769.11 1348.44 1773.8 1348.44L1915.2 1348.44C1919.89 1348.44 1923.68 1352.24 1923.69 1356.92 1923.69 1370.96 1912.27 1382.38 1898.23 1382.38ZM1773.8 1354.09C1772.24 1354.09 1770.97 1355.36 1770.97 1356.92 1770.98 1367.85 1779.84 1376.71 1790.77 1376.72L1898.23 1376.72C1909.16 1376.71 1918.02 1367.85 1918.03 1356.92 1918.03 1355.36 1916.77 1354.09 1915.2 1354.09Z" fill="#333333"/><path d="M1790.77 1249.45 1898.23 1249.45C1910.73 1249.45 1920.86 1259.58 1920.86 1272.08L1920.86 1334.3C1920.86 1337.42 1918.33 1339.95 1915.2 1339.95L1773.8 1339.95C1770.67 1339.95 1768.14 1337.42 1768.14 1334.3L1768.14 1272.08C1768.14 1259.58 1778.27 1249.45 1790.77 1249.45Z" fill="#FFFFFF"/><path d="M1796.42 1257.94 1898.23 1257.94C1909.17 1257.94 1918.03 1266.8 1918.03 1277.73L1918.03 1334.3C1918.03 1335.86 1916.77 1337.12 1915.2 1337.12L1796.42 1337.12C1785.49 1337.12 1776.63 1328.26 1776.63 1317.33L1776.63 1277.73C1776.63 1266.8 1785.49 1257.94 1796.42 1257.94Z" fill="#82DAFA"/><path d="M1915.2 1342.78 1773.8 1342.78C1769.11 1342.78 1765.32 1338.98 1765.31 1334.3L1765.31 1272.08C1765.31 1258.04 1776.73 1246.63 1790.77 1246.63L1898.23 1246.63C1912.27 1246.63 1923.69 1258.04 1923.69 1272.08L1923.69 1334.3C1923.68 1338.98 1919.89 1342.78 1915.2 1342.78ZM1790.77 1252.28C1779.84 1252.29 1770.98 1261.15 1770.97 1272.08L1770.97 1334.3C1770.97 1335.86 1772.24 1337.12 1773.8 1337.12L1915.2 1337.12C1916.77 1337.12 1918.03 1335.86 1918.03 1334.3L1918.03 1272.08C1918.02 1261.15 1909.16 1252.29 1898.23 1252.28Z" fill="#333333"/><path d="M1790.77 1365.41 1841.67 1365.41C1843.56 1365.41 1844.5 1366.35 1844.5 1368.23L1844.5 1368.23C1844.5 1370.12 1843.56 1371.06 1841.67 1371.06L1790.77 1371.06C1788.88 1371.06 1787.94 1370.12 1787.94 1368.23L1787.94 1368.23C1787.94 1366.35 1788.88 1365.41 1790.77 1365.41Z" fill="#333333"/><path d="M1858.64 1365.41 1864.3 1365.41C1866.18 1365.41 1867.12 1366.35 1867.12 1368.23L1867.12 1368.23C1867.12 1370.12 1866.18 1371.06 1864.3 1371.06L1858.64 1371.06C1856.76 1371.06 1855.81 1370.12 1855.81 1368.23L1855.81 1368.23C1855.81 1366.35 1856.76 1365.41 1858.64 1365.41Z" fill="#333333"/><path d="M1869.95 1299.1C1869.96 1292.17 1864.35 1286.54 1857.42 1286.53 1856.88 1286.53 1856.34 1286.57 1855.8 1286.64 1855.8 1286.5 1855.81 1286.36 1855.81 1286.22 1855.81 1279.97 1850.75 1274.91 1844.5 1274.91 1838.25 1274.91 1833.19 1279.97 1833.19 1286.22 1833.19 1286.36 1833.19 1286.5 1833.2 1286.64 1826.31 1285.74 1820.01 1290.59 1819.11 1297.47 1818.21 1304.35 1823.06 1310.66 1829.94 1311.56 1830.08 1311.58 1830.22 1311.6 1830.36 1311.61L1858.64 1311.61C1865.06 1310.96 1869.95 1305.56 1869.95 1299.1Z" fill="#FFFFFF"/><path d="M1867.12 1299.17C1867.12 1293.83 1864.3 1289.05 1855.95 1289.27 1855.95 1284.46 1851.95 1280.57 1847.01 1280.57 1842.07 1280.57 1838.07 1284.46 1838.07 1289.27 1838.07 1289.37 1838.07 1289.48 1838.08 1289.59 1837.66 1289.54 1837.24 1289.51 1836.83 1289.51 1831.35 1289.51 1826.89 1293.84 1826.89 1299.17 1826.89 1304.18 1830.81 1308.3 1835.83 1308.79L1858.18 1308.79C1863.2 1308.3 1867.12 1304.18 1867.12 1299.17Z" fill="#C4F08B"/><path d="M1858.64 1314.44 1830.36 1314.44C1830.27 1314.44 1830.17 1314.44 1830.08 1314.42 1821.62 1313.55 1815.47 1305.99 1816.34 1297.53 1817.1 1290.09 1823.11 1284.27 1830.58 1283.74 1831.94 1276.05 1839.28 1270.93 1846.97 1272.29 1852.81 1273.33 1857.39 1277.9 1858.42 1283.74 1866.91 1284.32 1873.32 1291.67 1872.74 1300.15 1872.23 1307.65 1866.39 1313.68 1858.92 1314.43 1858.83 1314.43 1858.73 1314.44 1858.64 1314.44ZM1830.51 1308.78 1858.49 1308.78C1863.84 1308.18 1867.68 1303.35 1867.08 1298.01 1866.52 1293.08 1862.34 1289.36 1857.38 1289.36 1856.97 1289.36 1856.56 1289.39 1856.16 1289.44 1854.61 1289.64 1853.19 1288.54 1852.99 1286.99 1852.98 1286.84 1852.97 1286.69 1852.97 1286.53L1852.97 1286.5 1852.97 1286.22C1852.97 1281.53 1849.18 1277.73 1844.49 1277.73 1839.8 1277.73 1836.01 1281.53 1836.01 1286.22L1836.01 1286.53C1836.06 1288.09 1834.84 1289.41 1833.28 1289.46 1833.13 1289.47 1832.98 1289.46 1832.82 1289.44 1832.42 1289.39 1832.01 1289.36 1831.59 1289.36 1826.22 1289.35 1821.85 1293.71 1821.84 1299.09 1821.84 1304.05 1825.56 1308.22 1830.49 1308.78Z" fill="#333333"/></g></g></g><text font-family="Arial,Arial_MSFontService,sans-serif" font-weight="700" font-size="48" transform="matrix(1 0 0 1 1730.48 1457)">Credential</text><text font-family="Arial,Arial_MSFontService,sans-serif" font-weight="700" font-size="48" transform="matrix(1 0 0 1 1750.53 1515)">Platform</text><path d="M2133.5 1063.5 2133.5 1217.48" stroke="#747474" stroke-width="6.875" stroke-miterlimit="8" fill="none" fill-rule="evenodd"/><g><g><g><path d="M2049.36 719.948 2213.3 719.948 2213.3 913.414 2049.36 913.414 2049.36 719.948Z" fill="#D8E3F0"/><path d="M2070.84 741.469 2191.78 741.469 2191.78 891.938 2070.84 891.938Z" fill="#EDF4FF"/><path d="M2212.89 857.54 2193.01 868.96 2173.17 857.54 2136.5 921.012 2154.06 918.828 2160.88 935.117 2193.01 879.516 2225.13 935.117 2232 918.828 2249.56 921.012 2212.89 857.54Z" fill="#F65855"/><path d="M2153.15 858.95C2153.15 880.963 2170.99 898.808 2193.01 898.808 2215.02 898.808 2232.87 880.963 2232.87 858.95 2232.87 836.938 2215.02 819.092 2193.01 819.092 2170.99 819.092 2153.15 836.938 2153.15 858.95Z" fill="#FFC670"/><path d="M2196.74 819.274C2213.39 826.665 2220.9 846.156 2213.51 862.808 2206.12 879.46 2186.63 886.967 2169.97 879.577 2162.46 876.24 2156.46 870.214 2153.15 862.681 2155.21 884.598 2174.64 900.698 2196.56 898.642 2218.47 896.585 2234.57 877.151 2232.52 855.235 2230.73 836.165 2215.63 821.064 2196.56 819.274Z" fill="#FFB75E"/><path d="M2193.01 838.248 2201.02 848.622 2213.35 853.036 2205.98 863.864 2205.61 876.968 2193.01 873.283 2180.45 876.968 2180.04 863.864 2172.67 853.036 2185 848.622 2193.01 838.248Z" fill="#FFDEAD"/><path d="M2253.48 918.737 2231.59 880.881C2243.1 860.743 2237.15 835.143 2217.94 822.141L2217.94 726.045C2217.94 720.165 2213.18 715.398 2207.29 715.398L2055.42 715.398C2049.56 715.398 2044.81 720.144 2044.81 725.999 2044.81 726.015 2044.81 726.03 2044.81 726.045L2044.81 907.362C2044.81 913.217 2049.56 917.964 2055.42 917.964L2132.99 917.964 2132.54 918.737C2131.62 920.213 2131.62 922.085 2132.54 923.56 2133.52 925.07 2135.31 925.856 2137.09 925.562L2151.24 923.742 2156.74 936.892C2157.42 938.485 2158.93 939.561 2160.66 939.667L2160.93 939.667C2162.56 939.674 2164.07 938.806 2164.89 937.392L2185 902.63C2187.66 903.122 2190.35 903.381 2193.05 903.404 2195.77 903.378 2198.48 903.12 2201.15 902.63L2221.4 937.392C2222.22 938.806 2223.73 939.674 2225.36 939.667L2225.63 939.667C2227.36 939.561 2228.87 938.485 2229.54 936.892L2235.05 923.742 2249.2 925.562C2251.69 925.913 2253.99 924.181 2254.34 921.693 2254.49 920.669 2254.28 919.627 2253.75 918.737ZM2055.42 908.864C2054.59 908.864 2053.91 908.192 2053.91 907.362L2053.91 726.045C2053.91 725.208 2054.58 724.523 2055.42 724.498L2207.2 724.498C2208.06 724.498 2208.75 725.19 2208.75 726.045L2208.75 817.5C2204.77 815.968 2200.58 815.033 2196.33 814.724L2196.33 741.469C2196.33 738.956 2194.29 736.919 2191.78 736.919L2070.84 736.919C2068.33 736.919 2066.29 738.956 2066.29 741.469L2066.29 891.892C2066.29 894.405 2068.33 896.443 2070.84 896.443L2145.42 896.443 2138.23 908.864ZM2148.6 858.95C2148.61 866.642 2150.61 874.2 2154.42 880.881L2150.65 887.342 2075.39 887.342 2075.39 746.02 2187.23 746.02 2187.23 814.952C2165.16 817.889 2148.66 836.685 2148.6 858.95ZM2161.52 924.925 2158.25 917.054C2157.47 915.262 2155.64 914.164 2153.7 914.324L2145.23 915.37 2160.52 888.889C2164.79 893.639 2170.04 897.411 2175.9 899.946ZM2157.7 858.95C2157.73 839.45 2173.55 823.663 2193.05 823.688 2212.55 823.713 2228.34 839.541 2228.32 859.042 2228.29 878.524 2212.49 894.304 2193.01 894.304 2173.5 894.279 2157.7 878.458 2157.7 858.95ZM2232.55 914.324C2230.52 914.059 2228.57 915.175 2227.77 917.054L2224.49 924.925 2210.07 899.946C2216.11 897.474 2221.53 893.698 2225.95 888.889L2241.24 915.37Z" fill="#3D3D63"/><path d="M2214.89 848.758 2203.84 844.8 2196.6 835.7C2195.01 833.752 2192.15 833.461 2190.2 835.049 2189.96 835.244 2189.74 835.461 2189.55 835.7L2182.32 844.8 2171.35 848.758C2170.03 849.236 2169.01 850.293 2168.57 851.625 2168.14 852.958 2168.34 854.419 2169.12 855.583L2175.76 865.32 2175.9 877.105C2175.94 878.513 2176.63 879.823 2177.77 880.654 2178.91 881.483 2180.37 881.735 2181.72 881.336L2193.01 878.015 2204.34 881.336C2204.76 881.406 2205.19 881.406 2205.61 881.336 2206.56 881.33 2207.48 881.028 2208.25 880.472 2209.41 879.651 2210.11 878.339 2210.16 876.923L2210.48 865.138 2217.12 855.401C2217.92 854.244 2218.14 852.783 2217.71 851.443 2217.22 850.171 2216.19 849.185 2214.89 848.758ZM2202.24 861.316C2201.75 862.026 2201.46 862.862 2201.43 863.728L2201.43 870.962 2194.1 868.915C2193.27 868.672 2192.38 868.672 2191.55 868.915L2185 870.962 2184.77 863.728C2184.73 862.862 2184.45 862.026 2183.95 861.316L2179.9 855.31 2186.68 852.899C2187.5 852.592 2188.22 852.074 2188.78 851.397L2193.33 845.664 2197.88 851.397C2198.43 852.074 2199.15 852.592 2199.97 852.899L2206.75 855.31ZM2151.83 759.715 2110.88 759.715C2108.37 759.715 2106.33 761.752 2106.33 764.265 2106.33 766.778 2108.37 768.815 2110.88 768.815L2151.83 768.815C2154.34 768.815 2156.38 766.778 2156.38 764.265 2156.38 761.752 2154.34 759.715 2151.83 759.715ZM2093.04 852.398 2116.29 852.398C2118.81 852.398 2120.84 850.36 2120.84 847.847 2120.84 845.335 2118.81 843.299 2116.29 843.298L2093.04 843.298C2090.53 843.299 2088.5 845.337 2088.5 847.85 2088.5 850.361 2090.53 852.398 2093.04 852.398ZM2134.95 863.409 2093.04 863.409C2090.53 863.41 2088.5 865.448 2088.5 867.96 2088.5 870.473 2090.53 872.509 2093.04 872.509L2134.95 872.509C2137.46 872.509 2139.5 870.471 2139.5 867.958 2139.5 865.446 2137.46 863.41 2134.95 863.409Z" fill="#3D3D63"/></g></g></g></g></svg>