<svg width="4243" height="924" xmlns="http://www.w3.org/2000/svg" xmlns:xlink="http://www.w3.org/1999/xlink" xml:space="preserve" overflow="hidden"><defs><filter id="fx0" x="-10%" y="-10%" width="120%" height="120%" filterUnits="userSpaceOnUse" primitiveUnits="userSpaceOnUse"><feComponentTransfer color-interpolation-filters="sRGB"><feFuncR type="discrete" tableValues="0 0"/><feFuncG type="discrete" tableValues="0 0"/><feFuncB type="discrete" tableValues="0 0"/><feFuncA type="linear" slope="0.4" intercept="0"/></feComponentTransfer><feGaussianBlur stdDeviation="6.11111 6.11111"/></filter><filter id="fx1" x="-10%" y="-10%" width="120%" height="120%" filterUnits="userSpaceOnUse" primitiveUnits="userSpaceOnUse"><feComponentTransfer color-interpolation-filters="sRGB"><feFuncR type="discrete" tableValues="0 0"/><feFuncG type="discrete" tableValues="0 0"/><feFuncB type="discrete" tableValues="0 0"/><feFuncA type="linear" slope="0.4" intercept="0"/></feComponentTransfer><feGaussianBlur stdDeviation="6.11111 6.11111"/></filter><filter id="fx2" x="-10%" y="-10%" width="120%" height="120%" filterUnits="userSpaceOnUse" primitiveUnits="userSpaceOnUse"><feComponentTransfer color-interpolation-filters="sRGB"><feFuncR type="discrete" tableValues="0 0"/><feFuncG type="discrete" tableValues="0 0"/><feFuncB type="discrete" tableValues="0 0"/><feFuncA type="linear" slope="0.4" intercept="0"/></feComponentTransfer><feGaussianBlur stdDeviation="6.11111 6.11111"/></filter><clipPath id="clip3"><rect x="67" y="726" width="4243" height="924"/></clipPath><clipPath id="clip4"><path d="M1510.5 738.5 1510.5 1617.5 2841.5 1617.5 2841.5 738.5ZM67.0001 726 4310 726 4310 1650 67.0001 1650Z" fill-rule="evenodd" clip-rule="evenodd"/></clipPath><clipPath id="clip5"><path d="M2946.5 738.5 2946.5 1617.5 4277.5 1617.5 4277.5 738.5ZM67.0001 726 4310 726 4310 1650 67.0001 1650Z" fill-rule="evenodd" clip-rule="evenodd"/></clipPath><clipPath id="clip6"><path d="M79.5 738.5 79.5 1617.5 1410.5 1617.5 1410.5 738.5ZM67.0001 726 4310 726 4310 1650 67.0001 1650Z" fill-rule="evenodd" clip-rule="evenodd"/></clipPath></defs><g clip-path="url(#clip3)" transform="translate(-67 -726)"><g clip-path="url(#clip4)"><g filter="url(#fx0)" transform="translate(1497 725)"><g><rect x="23.2227" y="23.2226" width="1331" height="879" stroke="#000000" stroke-width="7" stroke-miterlimit="8" fill="#FFFFFF"/></g></g></g><rect x="1510.5" y="738.5" width="1331" height="879" stroke="#000000" stroke-width="6.875" stroke-miterlimit="8" fill="#FFFFFF"/><text font-family="Arial,Arial_MSFontService,sans-serif" font-weight="700" font-size="92" transform="matrix(1 0 0 1 2009.81 853)">Issuance</text><g><g><g><path d="M1659.79 1248.13 1790.15 1248.13 1827.73 1294.78 1827.73 1462.72C1827.73 1467.9 1823.58 1472.05 1818.4 1472.05L1659.79 1472.05C1654.6 1472.05 1650.46 1467.9 1650.46 1462.72L1650.46 1257.46C1650.46 1252.28 1654.6 1248.13 1659.79 1248.13Z" fill="#E2E2E2"/><path d="M1818.4 1481.38 1659.79 1481.38C1649.42 1481.38 1641.13 1473.09 1641.13 1462.72L1641.13 1257.46C1641.13 1247.1 1649.42 1238.8 1659.79 1238.8L1794.55 1238.8 1837.06 1291.41 1837.06 1462.72C1837.06 1473.09 1828.76 1481.38 1818.4 1481.38ZM1659.79 1248.13C1654.6 1248.13 1650.46 1252.28 1650.46 1257.46L1650.46 1462.72C1650.46 1467.9 1654.6 1472.05 1659.79 1472.05L1818.4 1472.05C1823.58 1472.05 1827.73 1467.9 1827.73 1462.72L1827.73 1294.78 1790.15 1248.13 1659.79 1248.13Z" fill="#E2E2E2"/><path d="M1791.96 1248.13 1827.73 1296.6 1785.74 1308.78Z" fill="#E2E2E2"/><path d="M1790.41 1248.13 1827.73 1294 1790.41 1299.45Z" fill="#E2E2E2"/><path d="M1790.41 1248.13 1827.73 1294.78 1790.41 1294.78ZM1673.78 1322.77 1804.4 1322.77 1804.4 1406.74 1673.78 1406.74Z" fill="#E2E2E2"/><path d="M1739.09 1322.77 1804.4 1322.77 1804.4 1406.74 1739.09 1406.74Z" fill="#E2E2E2"/><path d="M1673.78 1364.76 1804.4 1364.76 1804.4 1406.74 1673.78 1406.74Z" fill="#E2E2E2"/><path d="M1654.6 1242.95 1784.96 1242.95 1822.54 1289.6 1822.54 1457.54C1822.54 1462.72 1818.4 1466.87 1813.21 1466.87L1654.6 1466.87C1649.42 1466.87 1645.27 1462.72 1645.27 1457.54L1645.27 1252.28C1645.27 1247.1 1649.42 1242.95 1654.6 1242.95Z" fill="#E2F2FF"/><path d="M1813.21 1476.2 1654.6 1476.2C1644.24 1476.2 1635.94 1467.9 1635.94 1457.54L1635.94 1252.28C1635.94 1241.91 1644.24 1233.62 1654.6 1233.62L1789.37 1233.62 1831.87 1286.23 1831.87 1457.54C1831.87 1467.9 1823.58 1476.2 1813.21 1476.2ZM1654.6 1242.95C1649.42 1242.95 1645.27 1247.1 1645.27 1252.28L1645.27 1457.54C1645.27 1462.72 1649.42 1466.87 1654.6 1466.87L1813.21 1466.87C1818.4 1466.87 1822.54 1462.72 1822.54 1457.54L1822.54 1289.6 1784.96 1242.95 1654.6 1242.95Z" fill="#FFFFFF"/><path d="M1786.78 1242.95 1822.54 1291.41 1780.56 1303.59Z" fill="#C4DAEA"/><path d="M1785.22 1242.95 1822.54 1288.82 1785.22 1294.26Z" fill="#FFFFFF"/><path d="M1785.22 1242.95 1822.54 1289.6 1785.22 1289.6Z" fill="#E2F2FF"/><path d="M1668.6 1317.59 1799.22 1317.59 1799.22 1401.56 1668.6 1401.56Z" fill="#57A9ED"/><path d="M1733.91 1317.59 1799.22 1317.59 1799.22 1401.56 1733.91 1401.56Z" fill="#ADD6F8"/><path d="M1668.6 1359.57 1733.13 1359.57 1733.13 1401.56 1668.6 1401.56Z" fill="#76C8FF"/><path d="M1733.13 1359.57 1799.22 1359.57 1799.22 1401.56 1733.13 1401.56Z" fill="#BDE4FF"/></g></g></g><text font-family="Arial,Arial_MSFontService,sans-serif" font-weight="700" font-size="55" transform="matrix(1 0 0 1 1614.13 1542)">Attributes</text><text font-family="Arial,Arial_MSFontService,sans-serif" font-weight="700" font-size="55" transform="matrix(1 0 0 1 1626.05 1170)">Template</text><g><g><g><path d="M2525.78 1057.22 2737.16 1057.22 2737.16 1306.67 2525.78 1306.67 2525.78 1057.22Z" fill="#D8E3F0"/><path d="M2553.47 1084.97 2709.41 1084.97 2709.41 1278.98 2553.47 1278.98Z" fill="#EDF4FF"/><path d="M2736.63 1234.63 2710.99 1249.35 2685.41 1234.63 2638.13 1316.47 2660.77 1313.65 2669.57 1334.65 2710.99 1262.96 2752.41 1334.65 2761.27 1313.65 2783.91 1316.47 2736.63 1234.63Z" fill="#F65855"/><path d="M2659.6 1236.45C2659.6 1264.83 2682.61 1287.84 2710.99 1287.84 2739.38 1287.84 2762.38 1264.83 2762.38 1236.45 2762.38 1208.06 2739.38 1185.05 2710.99 1185.05 2682.61 1185.05 2659.6 1208.06 2659.6 1236.45Z" fill="#FFC670"/><path d="M2715.8 1185.29C2737.27 1194.82 2746.95 1219.95 2737.42 1241.42 2727.9 1262.89 2702.76 1272.57 2681.29 1263.04 2671.6 1258.74 2663.86 1250.97 2659.6 1241.26 2662.25 1269.51 2687.31 1290.27 2715.57 1287.62 2743.83 1284.97 2764.59 1259.91 2761.93 1231.65 2759.63 1207.07 2740.16 1187.59 2715.57 1185.29Z" fill="#FFB75E"/><path d="M2710.99 1209.75 2721.32 1223.13 2737.22 1228.82 2727.71 1242.78 2727.24 1259.68 2710.99 1254.93 2694.8 1259.68 2694.27 1242.78 2684.77 1228.82 2700.67 1223.13 2710.99 1209.75Z" fill="#FFDEAD"/><path d="M2788.96 1313.53 2760.74 1264.72C2775.57 1238.76 2767.9 1205.75 2743.14 1188.98L2743.14 1065.08C2743.14 1057.5 2737 1051.35 2729.41 1051.35L2533.58 1051.35C2526.03 1051.35 2519.91 1057.47 2519.91 1065.02 2519.91 1065.04 2519.91 1065.06 2519.91 1065.08L2519.91 1298.87C2519.91 1306.42 2526.03 1312.54 2533.58 1312.54L2633.61 1312.54 2633.02 1313.53C2631.83 1315.44 2631.83 1317.85 2633.02 1319.75 2634.3 1321.7 2636.6 1322.71 2638.89 1322.33L2657.14 1319.99 2664.23 1336.94C2665.1 1339 2667.05 1340.38 2669.28 1340.52L2669.63 1340.52C2671.74 1340.53 2673.68 1339.41 2674.74 1337.59L2700.67 1292.77C2704.09 1293.4 2707.57 1293.73 2711.05 1293.76 2714.55 1293.73 2718.05 1293.4 2721.49 1292.77L2747.6 1337.59C2748.65 1339.41 2750.6 1340.53 2752.7 1340.52L2753.06 1340.52C2755.28 1340.38 2757.24 1339 2758.1 1336.94L2765.2 1319.99 2783.45 1322.33C2786.65 1322.79 2789.62 1320.55 2790.07 1317.34 2790.26 1316.02 2789.99 1314.68 2789.31 1313.53ZM2533.58 1300.8C2532.51 1300.8 2531.65 1299.94 2531.65 1298.87L2531.65 1065.08C2531.65 1064 2532.51 1063.12 2533.58 1063.09L2729.3 1063.09C2730.4 1063.09 2731.29 1063.98 2731.29 1065.08L2731.29 1183C2726.16 1181.02 2720.76 1179.82 2715.27 1179.42L2715.27 1084.97C2715.27 1081.73 2712.65 1079.1 2709.41 1079.1L2553.47 1079.1C2550.23 1079.1 2547.61 1081.73 2547.61 1084.97L2547.61 1278.92C2547.61 1282.16 2550.23 1284.79 2553.47 1284.79L2649.63 1284.79 2640.36 1300.8ZM2653.73 1236.45C2653.74 1246.36 2656.33 1256.11 2661.24 1264.72L2656.37 1273.05 2559.34 1273.05 2559.34 1090.83 2703.54 1090.83 2703.54 1179.71C2675.08 1183.5 2653.81 1207.74 2653.73 1236.45ZM2670.39 1321.51 2666.17 1311.36C2665.17 1309.05 2662.81 1307.64 2660.3 1307.84L2649.39 1309.19 2669.1 1275.05C2674.61 1281.17 2681.37 1286.03 2688.93 1289.3ZM2665.47 1236.45C2665.5 1211.3 2685.91 1190.95 2711.05 1190.98 2736.19 1191.01 2756.55 1211.42 2756.52 1236.56 2756.48 1261.68 2736.11 1282.03 2710.99 1282.03 2685.84 1282 2665.47 1261.6 2665.47 1236.45ZM2761.97 1307.84C2759.36 1307.5 2756.84 1308.94 2755.81 1311.36L2751.59 1321.51 2732.99 1289.3C2740.78 1286.12 2747.77 1281.25 2753.47 1275.05L2773.18 1309.19Z" fill="#3D3D63"/><path d="M2739.21 1223.3 2724.95 1218.2 2715.63 1206.47C2713.58 1203.96 2709.88 1203.58 2707.37 1205.63 2707.07 1205.88 2706.78 1206.16 2706.53 1206.47L2697.21 1218.2 2683.07 1223.3C2681.37 1223.92 2680.05 1225.28 2679.49 1227 2678.92 1228.72 2679.18 1230.6 2680.19 1232.1L2688.76 1244.66 2688.93 1259.85C2688.98 1261.67 2689.87 1263.36 2691.34 1264.43 2692.81 1265.5 2694.7 1265.82 2696.44 1265.31L2710.99 1261.03 2725.6 1265.31C2726.14 1265.4 2726.7 1265.4 2727.24 1265.31 2728.47 1265.3 2729.66 1264.91 2730.65 1264.19 2732.13 1263.14 2733.05 1261.44 2733.11 1259.62L2733.52 1244.42 2742.09 1231.87C2743.11 1230.38 2743.4 1228.49 2742.85 1226.77 2742.22 1225.12 2740.88 1223.85 2739.21 1223.3ZM2722.9 1239.5C2722.26 1240.41 2721.89 1241.49 2721.85 1242.61L2721.85 1251.93 2712.4 1249.29C2711.33 1248.98 2710.19 1248.98 2709.11 1249.29L2700.67 1251.93 2700.37 1242.61C2700.32 1241.49 2699.96 1240.41 2699.32 1239.5L2694.1 1231.75 2702.84 1228.64C2703.89 1228.25 2704.82 1227.58 2705.54 1226.71L2711.4 1219.31 2717.27 1226.71C2717.98 1227.58 2718.91 1228.25 2719.97 1228.64L2728.71 1231.75ZM2657.9 1108.49 2605.1 1108.49C2601.86 1108.49 2599.23 1111.12 2599.23 1114.36 2599.23 1117.6 2601.86 1120.23 2605.1 1120.23L2657.9 1120.23C2661.14 1120.23 2663.77 1117.6 2663.77 1114.36 2663.77 1111.12 2661.14 1108.49 2657.9 1108.49ZM2582.1 1228 2612.08 1228C2615.32 1228 2617.95 1225.37 2617.95 1222.13 2617.94 1218.89 2615.32 1216.26 2612.08 1216.26L2582.1 1216.26C2578.86 1216.26 2576.24 1218.89 2576.24 1222.13 2576.24 1225.37 2578.86 1228 2582.1 1228ZM2636.13 1242.19 2582.1 1242.19C2578.86 1242.2 2576.24 1244.82 2576.24 1248.06 2576.24 1251.3 2578.86 1253.93 2582.1 1253.93L2636.13 1253.93C2639.37 1253.93 2642 1251.3 2642 1248.06 2642 1244.82 2639.37 1242.2 2636.13 1242.19Z" fill="#3D3D63"/></g></g></g><text font-family="Arial,Arial_MSFontService,sans-serif" font-weight="700" font-size="55" transform="matrix(1 0 0 1 2512.02 1393)">Credential</text><g><g><g><path d="M1722.15 1052.87C1722.15 1058.47 1724.63 1068.42 1717.79 1069.67 1712.19 1070.29 1705.97 1069.67 1701 1069.67L1672.39 1069.67C1666.79 1069.67 1659.95 1070.29 1654.35 1069.67 1647.51 1068.42 1649.37 1058.47 1649.37 1052.87 1649.37 1047.27 1651.86 1042.3 1656.84 1038.57 1661.81 1035.46 1673.01 1036.08 1665.54 1027.37 1655.59 1016.17 1654.35 1000 1663.68 988.184 1671.76 978.232 1686.69 975.122 1697.89 980.72 1711.57 988.184 1717.17 1005.6 1710.33 1019.28 1707.22 1024.88 1696.64 1032.97 1707.84 1035.46 1716.55 1038.57 1722.15 1044.79 1722.15 1052.87Z" fill="#60C0FF"/><path d="M1803.63 943.4C1799.9 948.376 1796.79 953.974 1793.05 958.95 1790.57 962.682 1786.21 972.634 1779.99 972.634 1774.39 972.634 1770.66 962.06 1767.55 958.328 1763.82 953.352 1761.33 947.754 1757.6 942.778L1614.54 942.778 1614.54 1098.28 1838.46 1098.28 1838.46 943.4 1803.63 943.4ZM1730.85 1065.93C1730.85 1076.51 1720.9 1078.37 1712.82 1078.37L1657.46 1078.37C1648.75 1078.37 1641.91 1074.64 1641.91 1065.31 1641.29 1051.63 1642.53 1036.7 1657.46 1031.1 1640.04 1007.47 1656.21 971.39 1686.69 971.39 1716.55 971.39 1733.34 1007.47 1715.93 1031.1 1730.85 1036.7 1730.85 1051.63 1730.85 1065.93Z" fill="#60C0FF"/><path d="M1844.68 930.96 1811.71 930.96C1816.07 924.118 1821.67 917.276 1825.4 910.434 1831.62 897.994 1811.09 900.482 1804.87 900.482 1804.87 888.664 1806.12 878.712 1816.69 871.87 1823.53 867.516 1831 866.272 1838.46 865.65 1845.92 865.028 1846.55 860.674 1846.55 855.076 1847.17 850.1 1848.41 843.88 1842.81 841.392 1834.73 837.66 1822.91 837.66 1814.2 837.66 1799.9 837.66 1784.97 839.526 1773.77 848.234 1757.6 860.052 1753.87 880.578 1754.49 899.86 1748.27 899.86 1728.37 897.372 1734.59 909.812 1738.32 917.276 1743.92 924.118 1748.27 930.338L1612.67 930.338C1609.56 930.338 1605.83 929.716 1603.34 932.204 1599.61 936.558 1602.1 948.998 1602.1 953.974L1602.1 1093.3C1602.1 1099.52 1600.23 1110.1 1608.32 1111.34 1613.92 1111.96 1619.52 1111.34 1625.11 1111.34L1844.06 1111.34C1849.66 1110.72 1850.28 1106.99 1850.28 1102.63 1850.9 1075.26 1850.28 1048.52 1850.28 1021.15 1850.28 993.782 1850.9 967.036 1850.28 939.668 1850.9 935.314 1850.28 930.96 1844.68 930.96ZM1760.09 912.3C1765.69 912.3 1767.55 907.946 1767.55 902.97 1767.55 897.372 1766.93 891.152 1767.55 885.554 1768.17 876.224 1771.28 866.894 1778.13 860.674 1793.05 846.99 1816.69 849.478 1834.73 851.344 1836.59 851.344 1838.46 851.966 1840.33 851.966 1819.8 852.588 1797.41 862.54 1793.05 884.932 1791.81 891.152 1791.81 899.238 1792.43 905.458 1793.68 914.166 1802.38 912.3 1809.23 912.3 1799.9 926.606 1789.94 940.912 1780.61 955.84 1771.28 941.534 1761.33 927.228 1752 912.3L1760.09 912.3ZM1838.46 1098.9 1614.54 1098.9 1614.54 943.4 1756.98 943.4C1760.71 948.376 1763.82 953.974 1767.55 958.95 1770.04 962.682 1774.39 973.256 1780.61 973.256 1786.21 973.256 1791.19 962.682 1793.68 958.95 1797.41 953.974 1800.52 948.376 1804.25 943.4L1838.46 943.4 1838.46 1098.9Z" fill="#1C2754"/><path d="M1722.15 1052.87C1722.15 1058.47 1724.63 1068.42 1717.79 1069.67 1712.19 1070.29 1705.97 1069.67 1701 1069.67L1672.39 1069.67C1666.79 1069.67 1659.95 1070.29 1654.35 1069.67 1647.51 1068.42 1649.37 1058.47 1649.37 1052.87 1649.37 1047.27 1651.86 1042.3 1656.84 1038.57 1661.81 1035.46 1673.01 1036.08 1665.54 1027.37 1655.59 1016.17 1654.35 1000 1663.68 988.184 1671.76 978.232 1686.69 975.122 1697.89 980.72 1711.57 988.184 1717.17 1005.6 1710.33 1019.28 1707.22 1024.88 1696.64 1032.97 1707.84 1035.46 1716.55 1038.57 1722.15 1044.79 1722.15 1052.87Z" fill="#F85722"/><path d="M1715.3 1029.86C1732.72 1006.22 1716.55 970.146 1686.07 970.146 1656.21 970.146 1639.42 1006.22 1656.84 1029.86 1641.91 1036.08 1640.04 1051.63 1641.29 1065.31 1642.53 1079 1654.97 1077.75 1664.92 1077.75L1702.86 1077.75C1710.95 1077.75 1724.01 1080.24 1728.37 1071.53 1731.48 1066.56 1730.23 1059.09 1730.23 1053.49 1730.23 1043.54 1724.63 1034.21 1715.3 1029.86ZM1722.15 1065.93C1722.15 1071.53 1711.57 1070.29 1707.84 1070.29L1653.73 1070.29C1648.75 1069.04 1649.37 1064.69 1649.37 1060.96 1649.37 1057.23 1648.75 1053.49 1649.99 1050.38 1651.86 1041.68 1658.08 1039.81 1664.92 1037.32 1673.63 1034.21 1663.68 1027.37 1661.19 1023.02 1657.46 1016.8 1656.21 1008.71 1658.08 1001.87 1661.19 988.806 1673.63 978.854 1687.31 979.476 1700.38 980.098 1710.95 990.672 1713.44 1003.11 1714.68 1011.2 1712.82 1019.28 1707.84 1026.13 1705.97 1028.61 1700.38 1032.35 1703.49 1036.08 1705.35 1037.94 1710.33 1037.94 1712.82 1039.19 1724.01 1044.16 1722.15 1055.98 1722.15 1065.93Z" fill="#FFFFFF"/><path d="M1751.38 1036.7 1807.36 1036.7C1812.34 1036.7 1819.8 1036.08 1819.8 1042.92 1819.8 1050.38 1811.09 1049.14 1806.12 1049.14L1758.84 1049.14C1753.87 1049.14 1745.16 1050.38 1745.16 1042.92 1745.16 1039.19 1747.65 1036.7 1751.38 1036.7Z" fill="#FFFFFF"/><path d="M1751.38 999.38 1773.77 999.38C1779.37 999.38 1794.92 996.892 1794.92 1005.6 1794.92 1014.93 1775.64 1011.82 1770.04 1011.82 1764.44 1011.82 1745.16 1014.93 1745.16 1005.6 1745.16 1001.87 1747.65 999.38 1751.38 999.38Z" fill="#FFFFFF"/><path d="M1840.95 851.966C1820.42 852.588 1797.41 863.162 1793.05 885.554 1791.81 891.774 1792.43 899.238 1793.05 905.458 1794.3 914.166 1803.01 911.678 1809.85 911.678 1800.52 925.984 1789.94 940.912 1780.61 955.84 1771.28 941.534 1760.71 926.606 1751.38 911.678 1760.09 911.678 1768.17 912.922 1767.55 901.104 1766.93 888.042 1766.31 873.114 1775.02 862.54 1789.32 845.124 1821.04 848.856 1840.95 851.966Z" fill="#81DB61"/></g></g></g><path d="M1880.5 1009.06 2198.35 1009.06 2198.35 1199.56 2194.92 1196.12 2486.42 1196.12 2486.42 1202.99 2191.48 1202.99 2191.48 1012.5 2194.92 1015.94 1880.5 1015.94ZM2481.83 1185.81 2509.33 1199.56 2481.83 1213.31Z" fill="#747474"/><path d="M0-3.4375 317.854-3.4375 317.854 187.057 314.417 183.62 605.917 183.62 605.917 190.495 310.979 190.495 310.979 0 314.417 3.4375 0 3.4375ZM601.333 173.307 628.833 187.057 601.333 200.807Z" fill="#747474" transform="matrix(1 -1.22465e-16 -1.22465e-16 -1 1880.5 1388.56)"/><g clip-path="url(#clip5)"><g filter="url(#fx1)" transform="translate(2933 725)"><g><rect x="23.2229" y="23.2226" width="1331" height="879" stroke="#000000" stroke-width="7" stroke-miterlimit="8" fill="#FFFFFF"/></g></g></g><rect x="2946.5" y="738.5" width="1331" height="879" stroke="#000000" stroke-width="6.875" stroke-miterlimit="8" fill="#FFFFFF"/><text font-family="Arial,Arial_MSFontService,sans-serif" font-weight="700" font-size="92" transform="matrix(1 0 0 1 3387.4 853)">Verification</text><g><g><g><path d="M3062.82 865.369 3249.57 865.369 3249.57 1085.76 3062.82 1085.76 3062.82 865.369Z" fill="#D8E3F0"/><path d="M3087.28 889.886 3225.06 889.886 3225.06 1061.3 3087.28 1061.3Z" fill="#EDF4FF"/><path d="M3249.11 1022.11 3226.46 1035.12 3203.86 1022.11 3162.08 1094.42 3182.09 1091.93 3189.86 1110.49 3226.46 1047.15 3263.05 1110.49 3270.88 1091.93 3290.88 1094.42 3249.11 1022.11Z" fill="#F65855"/><path d="M3181.05 1023.72C3181.05 1048.8 3201.38 1069.13 3226.46 1069.13 3251.53 1069.13 3271.86 1048.8 3271.86 1023.72 3271.86 998.643 3251.53 978.314 3226.46 978.314 3201.38 978.314 3181.05 998.643 3181.05 1023.72Z" fill="#FFC670"/><path d="M3230.71 978.521C3249.68 986.941 3258.23 1009.14 3249.81 1028.11 3241.39 1047.08 3219.19 1055.64 3200.22 1047.22 3191.65 1043.42 3184.82 1036.55 3181.05 1027.97 3183.39 1052.94 3205.53 1071.28 3230.5 1068.94 3255.47 1066.59 3273.81 1044.45 3271.46 1019.49 3269.43 997.763 3252.22 980.56 3230.5 978.521Z" fill="#FFB75E"/><path d="M3226.46 1000.14 3235.58 1011.95 3249.63 1016.98 3241.23 1029.32 3240.81 1044.25 3226.46 1040.05 3212.15 1044.25 3211.68 1029.32 3203.29 1016.98 3217.33 1011.95 3226.46 1000.14Z" fill="#FFDEAD"/><path d="M3295.34 1091.83 3270.41 1048.7C3283.52 1025.76 3276.74 996.599 3254.86 981.787L3254.86 872.315C3254.86 865.616 3249.43 860.186 3242.73 860.186L3069.71 860.186C3063.04 860.186 3057.63 865.593 3057.63 872.263 3057.63 872.28 3057.63 872.298 3057.63 872.315L3057.63 1078.87C3057.63 1085.54 3063.04 1090.95 3069.71 1090.95L3158.09 1090.95 3157.57 1091.83C3156.52 1093.51 3156.52 1095.64 3157.57 1097.32 3158.69 1099.04 3160.73 1099.94 3162.75 1099.6L3178.87 1097.53 3185.14 1112.51C3185.91 1114.33 3187.64 1115.55 3189.6 1115.67L3189.91 1115.67C3191.77 1115.68 3193.49 1114.69 3194.42 1113.08L3217.33 1073.48C3220.36 1074.04 3223.43 1074.33 3226.51 1074.36 3229.6 1074.33 3232.69 1074.04 3235.73 1073.48L3258.8 1113.08C3259.73 1114.69 3261.45 1115.68 3263.31 1115.67L3263.62 1115.67C3265.59 1115.55 3267.31 1114.33 3268.08 1112.51L3274.35 1097.53 3290.47 1099.6C3293.3 1100 3295.93 1098.03 3296.33 1095.2 3296.49 1094.03 3296.25 1092.84 3295.65 1091.83ZM3069.71 1080.58C3068.77 1080.58 3068 1079.82 3068 1078.87L3068 872.315C3068 871.361 3068.76 870.581 3069.71 870.553L3242.63 870.553C3243.6 870.553 3244.39 871.342 3244.39 872.315L3244.39 976.5C3239.85 974.755 3235.09 973.69 3230.24 973.338L3230.24 889.886C3230.24 887.024 3227.92 884.703 3225.06 884.703L3087.28 884.703C3084.42 884.703 3082.1 887.024 3082.1 889.886L3082.1 1061.25C3082.1 1064.11 3084.42 1066.43 3087.28 1066.43L3172.24 1066.43 3164.05 1080.58ZM3175.87 1023.72C3175.87 1032.48 3178.16 1041.09 3182.5 1048.7L3178.2 1056.06 3092.47 1056.06 3092.47 895.07 3219.87 895.07 3219.87 973.597C3194.73 976.943 3175.93 998.356 3175.87 1023.72ZM3190.59 1098.88 3186.86 1089.91C3185.97 1087.87 3183.89 1086.62 3181.67 1086.8L3172.03 1087.99 3189.45 1057.83C3194.31 1063.24 3200.29 1067.53 3206.97 1070.42ZM3186.23 1023.72C3186.26 1001.51 3204.29 983.521 3226.51 983.549 3248.72 983.578 3266.71 1001.61 3266.68 1023.82 3266.65 1046.02 3248.65 1063.99 3226.46 1063.99 3204.23 1063.97 3186.23 1045.94 3186.23 1023.72ZM3271.5 1086.8C3269.19 1086.5 3266.97 1087.77 3266.06 1089.91L3262.32 1098.88 3245.89 1070.42C3252.78 1067.61 3258.95 1063.3 3263.98 1057.83L3281.4 1087.99Z" fill="#3D3D63"/><path d="M3251.39 1012.11 3238.79 1007.6 3230.55 997.233C3228.74 995.015 3225.48 994.683 3223.26 996.492 3222.99 996.713 3222.74 996.962 3222.52 997.233L3214.27 1007.6 3201.78 1012.11C3200.28 1012.65 3199.12 1013.86 3198.62 1015.37 3198.12 1016.89 3198.35 1018.56 3199.24 1019.88L3206.81 1030.98 3206.97 1044.4C3207.01 1046.01 3207.8 1047.5 3209.09 1048.44 3210.39 1049.39 3212.06 1049.68 3213.6 1049.22L3226.46 1045.44 3239.36 1049.22C3239.84 1049.3 3240.33 1049.3 3240.81 1049.22 3241.89 1049.22 3242.95 1048.87 3243.82 1048.24 3245.14 1047.3 3245.94 1045.81 3246 1044.19L3246.36 1030.77 3253.93 1019.68C3254.84 1018.36 3255.09 1016.69 3254.6 1015.17 3254.04 1013.72 3252.86 1012.6 3251.39 1012.11ZM3236.98 1026.42C3236.41 1027.22 3236.09 1028.18 3236.04 1029.16L3236.04 1037.4 3227.7 1035.07C3226.75 1034.8 3225.74 1034.8 3224.8 1035.07L3217.33 1037.4 3217.07 1029.16C3217.03 1028.18 3216.71 1027.22 3216.14 1026.42L3211.53 1019.57 3219.25 1016.83C3220.18 1016.48 3221.01 1015.89 3221.64 1015.12L3226.82 1008.58 3232 1015.12C3232.63 1015.89 3233.45 1016.48 3234.39 1016.83L3242.11 1019.57ZM3179.55 910.672 3132.9 910.672C3130.03 910.672 3127.71 912.992 3127.71 915.855 3127.71 918.718 3130.03 921.038 3132.9 921.038L3179.55 921.038C3182.41 921.038 3184.73 918.718 3184.73 915.855 3184.73 912.992 3182.41 910.672 3179.55 910.672ZM3112.58 1016.26 3139.06 1016.26C3141.93 1016.26 3144.25 1013.93 3144.25 1011.07 3144.25 1008.21 3141.93 1005.89 3139.06 1005.89L3112.58 1005.89C3109.72 1005.89 3107.4 1008.21 3107.4 1011.07 3107.4 1013.94 3109.72 1016.26 3112.58 1016.26ZM3160.32 1028.8 3112.58 1028.8C3109.72 1028.8 3107.4 1031.12 3107.4 1033.98 3107.4 1036.85 3109.72 1039.17 3112.58 1039.17L3160.32 1039.17C3163.18 1039.17 3165.5 1036.84 3165.5 1033.98 3165.5 1031.12 3163.18 1028.8 3160.32 1028.8Z" fill="#3D3D63"/></g></g></g><text font-family="Arial,Arial_MSFontService,sans-serif" font-weight="700" font-size="55" transform="matrix(1 0 0 1 3040.99 1175)">Credential</text><g><g><g><path d="M4106.03 1023.62C4106.03 1023.62 4075.47 1074.89 4014.35 1074.89 4014.35 1074.89 4010.4 1190.23 4106.03 1244.46 4106.03 1244.46 4207.68 1195.16 4207.68 1069.96 4207.67 1069.96 4139.38 1078.83 4106.03 1023.62Z" fill="#8BE0A3"/><path d="M4011.46 1084.12C4011.42 1085.14 4010.6 1109.55 4021.21 1140.46 4031.01 1169 4052.84 1208.77 4101.18 1236.18 4103.57 1237.54 4106.42 1237.81 4109.02 1236.92 4110.07 1236.57 4134.84 1227.96 4159.61 1204.28 4182.42 1182.46 4209.62 1143.19 4209.62 1079.93L4202.76 1076.55C4202.76 1168.27 4106.38 1208.54 4102.8 1209.77 4105.41 1208.87 4108.27 1209.14 4110.67 1210.5 4028.21 1163.75 4107.92 1041.46 4107.96 1040.58L4011.46 1084.12Z" fill="#6E6E96" fill-opacity="0.15"/><path d="M4107.96 1039.01C4131.44 1102.54 4202.84 1075.33 4209.6 1074.62 4209.99 1069.3 4209.6 1074.62 4209.6 1068.99 4209.6 1068.99 4141.31 1077.87 4107.96 1022.66 4107.96 1022.66 4077.4 1073.92 4016.27 1073.92 4016.27 1073.92 4016.06 1070.17 4016.92 1080.33 4085.1 1095.08 4107.96 1039.01 4107.96 1039.01Z" fill="#B0EDC1"/><path d="M4101.9 1021.16 4101.91 1021.15C4101.61 1021.64 4071.9 1070.08 4014.35 1070.08 4011.76 1070.08 4009.63 1072.13 4009.54 1074.72 4009.5 1075.93 4008.66 1104.78 4019.74 1140.75 4030 1174.08 4052.89 1219.85 4103.66 1248.64 4105.04 1249.42 4106.71 1249.47 4108.13 1248.78 4109.21 1248.26 4134.68 1235.72 4160.41 1207.39 4184.17 1181.24 4212.48 1136.17 4212.48 1069.95 4212.48 1067.3 4210.33 1065.15 4207.68 1065.15 4207.47 1065.15 4207.26 1065.16 4207.06 1065.18 4206.41 1065.27 4141.44 1072.92 4110.15 1021.13 4109.28 1019.69 4107.71 1018.81 4106.02 1018.81 4104.33 1018.82 4102.77 1019.71 4101.9 1021.16ZM4202.87 1069.96C4202.87 1190.75 4104.93 1239.65 4103.94 1240.13 4105.36 1239.44 4107.03 1239.49 4108.41 1240.27 4016.37 1188.09 4019.12 1076.18 4019.16 1075.05 4019.07 1077.64 4016.94 1079.7 4014.35 1079.7 4077.48 1079.7 4108.86 1028.27 4110.17 1026.08 4108.81 1028.37 4105.85 1029.11 4103.57 1027.75 4102.89 1027.35 4102.33 1026.78 4101.92 1026.11 4116.24 1049.81 4139.17 1065.74 4168.23 1072.17 4190.02 1076.99 4207.55 1074.82 4208.29 1074.73 4205.65 1075.07 4203.24 1073.2 4202.91 1070.57 4202.88 1070.37 4202.87 1070.16 4202.87 1069.96Z" fill="#6E6E96"/><path d="M4145.88 1101.13 4094.42 1152.59 4104.62 1152.59 4076.12 1124.09 4065.92 1134.29 4094.42 1162.79 4099.52 1167.89 4104.62 1162.79 4156.08 1111.33Z" fill="#6E6E96"/></g></g></g><text font-family="Arial,Arial_MSFontService,sans-serif" font-weight="700" font-size="55" transform="matrix(1 0 0 1 3985.84 1326)">Proof for </text><text font-family="Arial,Arial_MSFontService,sans-serif" font-weight="700" font-size="55" transform="matrix(1 0 0 1 3985.84 1392)">Predicate</text><path d="M3317.5 1023.06 3635.35 1023.06 3635.35 1213.56 3631.92 1210.12 3923.42 1210.12 3923.42 1216.99 3628.48 1216.99 3628.48 1026.5 3631.92 1029.94 3317.5 1029.94ZM3918.83 1199.81 3946.33 1213.56 3918.83 1227.31Z" fill="#747474"/><path d="M0-3.4375 317.854-3.4375 317.854 187.057 314.417 183.62 605.917 183.62 605.917 190.495 310.979 190.495 310.979 0 314.417 3.4375 0 3.4375ZM601.333 173.307 628.833 187.057 601.333 200.807Z" fill="#747474" transform="matrix(1 -1.22465e-16 -1.22465e-16 -1 3317.5 1402.56)"/><g><g><g><path d="M3165.69 1254.29C3217.38 1254.29 3259.29 1296.2 3259.29 1347.89 3259.29 1399.58 3217.38 1441.49 3165.69 1441.49 3114 1441.49 3072.09 1399.58 3072.09 1347.89 3072.09 1296.2 3114 1254.29 3165.69 1254.29ZM3149.99 1295.93C3146.28 1298.9 3142.56 1303.35 3140.32 1310.8L3136.6 1325.68 3115.02 1325.68C3114.22 1325.75 3113.61 1326.36 3113.54 1327.16L3113.54 1339.07C3113.54 1339.8 3114.27 1340.56 3115.02 1340.56L3132.87 1340.56 3121.72 1385.16C3119.48 1394.07 3113.54 1392.59 3113.54 1392.59L3106.11 1392.59 3106.11 1407.47 3113.54 1407.47C3119.48 1407.47 3125.42 1406.73 3128.41 1403.01 3132.14 1399.28 3134.36 1392.61 3135.84 1385.16L3146.99 1340.56 3164.09 1340.56C3164.89 1340.49 3165.5 1339.87 3165.57 1339.07L3165.57 1327.16C3165.53 1326.36 3164.89 1325.73 3164.09 1325.68L3150.72 1325.68 3154.44 1311.56C3155.17 1309.32 3158.9 1305.62 3161.14 1304.13 3169.3 1298.19 3180.47 1301.89 3187.9 1303.4L3187.9 1290.76C3180.47 1289.25 3164.11 1284.04 3149.99 1295.93ZM3190.66 1325.68 3171.33 1325.68C3170.53 1325.73 3169.89 1326.36 3169.84 1327.16L3169.84 1339.07C3169.84 1339.8 3170.58 1340.56 3171.33 1340.56L3183.24 1340.56C3183.97 1340.56 3184.72 1341.31 3185.48 1342.04L3189.93 1351.71 3189.93 1353.95 3176.54 1369.55C3175.81 1369.55 3175.05 1370.31 3174.3 1370.31L3163.9 1370.31C3163.1 1370.35 3162.46 1370.99 3162.42 1371.79L3162.42 1383.7C3162.42 1384.45 3163.17 1385.18 3163.9 1385.18L3175.81 1385.18C3176.54 1385.18 3178.05 1384.45 3178.05 1383.7L3195.14 1364.37C3195.87 1363.64 3196.63 1363.64 3196.63 1364.37L3206.29 1383.7C3206.29 1384.45 3207.78 1385.18 3208.53 1385.18L3220.44 1385.18C3221.24 1385.12 3221.85 1384.5 3221.92 1383.7L3221.92 1371.79C3221.85 1370.99 3221.24 1370.38 3220.44 1370.31L3215.98 1370.31C3215.23 1370.31 3214.5 1369.55 3213.74 1368.82L3206.32 1353.95 3206.32 1351.71 3215.23 1342.04C3215.98 1341.31 3216.71 1340.56 3217.47 1340.56L3227.84 1340.56C3228.64 1340.51 3229.28 1339.87 3229.33 1339.07L3229.33 1327.16C3229.28 1326.36 3228.64 1325.73 3227.84 1325.68L3215.96 1325.68C3215.21 1325.68 3213.72 1326.41 3213.72 1327.16L3201.08 1340.53C3200.35 1341.29 3199.6 1341.29 3199.6 1340.53L3192.9 1327.16C3192.15 1326.41 3191.42 1325.68 3190.66 1325.68Z" fill="#D4237A"/></g></g></g><text font-family="Arial,Arial_MSFontService,sans-serif" font-weight="700" font-size="55" transform="matrix(1 0 0 1 3059.45 1507)">Predicate</text><g clip-path="url(#clip6)"><g filter="url(#fx2)" transform="translate(66 725)"><g><rect x="23.2226" y="23.2226" width="1331" height="879" stroke="#000000" stroke-width="7" stroke-miterlimit="8" fill="#FFFFFF"/></g></g></g><rect x="79.4999" y="738.5" width="1331" height="879" stroke="#000000" stroke-width="6.875" stroke-miterlimit="8" fill="#FFFFFF"/><text font-family="Arial,Arial_MSFontService,sans-serif" font-weight="700" font-size="92" transform="matrix(1 0 0 1 461.334 853)">DID Creation</text><g><g><g><path d="M1240.89 1200.16 1177.11 1200.16C1170.34 1200.16 1164.84 1194.66 1164.84 1187.89L1164.84 1124.11C1164.84 1117.34 1170.34 1111.84 1177.11 1111.84L1240.89 1111.84C1247.66 1111.84 1253.16 1117.34 1253.16 1124.11L1253.16 1187.89C1253.16 1194.66 1247.66 1200.16 1240.89 1200.16Z" fill="#FFD740"/><path d="M1240.89 1202.61 1177.11 1202.61C1168.99 1202.61 1162.39 1196.01 1162.39 1187.89L1162.39 1124.11C1162.39 1115.99 1168.99 1109.39 1177.11 1109.39L1240.89 1109.39C1249.01 1109.39 1255.61 1115.99 1255.61 1124.11L1255.61 1187.89C1255.61 1196.01 1249.01 1202.61 1240.89 1202.61ZM1177.11 1114.3C1171.7 1114.3 1167.3 1118.7 1167.3 1124.11L1167.3 1187.89C1167.3 1193.3 1171.7 1197.7 1177.11 1197.7L1240.89 1197.7C1246.3 1197.7 1250.7 1193.3 1250.7 1187.89L1250.7 1124.11C1250.7 1118.7 1246.3 1114.3 1240.89 1114.3L1177.11 1114.3Z" fill="#263238"/><path d="M1228.62 1062.78 1189.38 1062.78C1186.67 1062.78 1184.47 1060.58 1184.47 1057.88L1184.47 1018.62C1184.47 1015.92 1186.67 1013.72 1189.38 1013.72L1228.62 1013.72C1231.33 1013.72 1233.53 1015.92 1233.53 1018.62L1233.53 1057.88C1233.53 1060.58 1231.33 1062.78 1228.62 1062.78Z" fill="#40C4FF"/><path d="M1228.62 1065.23 1189.38 1065.23C1185.32 1065.23 1182.02 1061.93 1182.02 1057.88L1182.02 1018.62C1182.02 1014.57 1185.32 1011.27 1189.38 1011.27L1228.62 1011.27C1232.68 1011.27 1235.98 1014.57 1235.98 1018.62L1235.98 1057.88C1235.98 1061.93 1232.68 1065.23 1228.62 1065.23ZM1189.38 1016.17C1188.02 1016.17 1186.92 1017.27 1186.92 1018.62L1186.92 1057.88C1186.92 1059.23 1188.02 1060.33 1189.38 1060.33L1228.62 1060.33C1229.98 1060.33 1231.08 1059.23 1231.08 1057.88L1231.08 1018.62C1231.08 1017.27 1229.98 1016.17 1228.62 1016.17L1189.38 1016.17Z" fill="#263238"/><path d="M1228.62 1298.28 1189.38 1298.28C1186.67 1298.28 1184.47 1296.08 1184.47 1293.38L1184.47 1254.13C1184.47 1251.42 1186.67 1249.22 1189.38 1249.22L1228.62 1249.22C1231.33 1249.22 1233.53 1251.42 1233.53 1254.13L1233.53 1293.38C1233.53 1296.08 1231.33 1298.28 1228.62 1298.28Z" fill="#40C4FF"/><path d="M1228.62 1300.73 1189.38 1300.73C1185.32 1300.73 1182.02 1297.43 1182.02 1293.38L1182.02 1254.13C1182.02 1250.07 1185.32 1246.77 1189.38 1246.77L1228.62 1246.77C1232.68 1246.77 1235.98 1250.07 1235.98 1254.13L1235.98 1293.38C1235.98 1297.43 1232.68 1300.73 1228.62 1300.73ZM1189.38 1251.67C1188.02 1251.67 1186.92 1252.77 1186.92 1254.13L1186.92 1293.38C1186.92 1294.73 1188.02 1295.83 1189.38 1295.83L1228.62 1295.83C1229.98 1295.83 1231.08 1294.73 1231.08 1293.38L1231.08 1254.13C1231.08 1252.77 1229.98 1251.67 1228.62 1251.67L1189.38 1251.67Z" fill="#263238"/><path d="M1302.22 1175.62 1302.22 1136.38C1302.22 1133.67 1304.42 1131.47 1307.12 1131.47L1346.38 1131.47C1349.08 1131.47 1351.28 1133.67 1351.28 1136.38L1351.28 1175.62C1351.28 1178.33 1349.08 1180.53 1346.38 1180.53L1307.12 1180.53C1304.42 1180.53 1302.22 1178.33 1302.22 1175.62Z" fill="#40C4FF"/><path d="M1346.38 1182.98 1307.12 1182.98C1303.07 1182.98 1299.77 1179.68 1299.77 1175.62L1299.77 1136.38C1299.77 1132.32 1303.07 1129.02 1307.12 1129.02L1346.38 1129.02C1350.43 1129.02 1353.73 1132.32 1353.73 1136.38L1353.73 1175.62C1353.73 1179.68 1350.43 1182.98 1346.38 1182.98ZM1307.12 1133.92C1305.77 1133.92 1304.67 1135.02 1304.67 1136.38L1304.67 1175.62C1304.67 1176.98 1305.77 1178.08 1307.12 1178.08L1346.38 1178.08C1347.73 1178.08 1348.83 1176.98 1348.83 1175.62L1348.83 1136.38C1348.83 1135.02 1347.73 1133.92 1346.38 1133.92L1307.12 1133.92Z" fill="#263238"/><path d="M1066.72 1175.62 1066.72 1136.38C1066.72 1133.67 1068.92 1131.47 1071.62 1131.47L1110.87 1131.47C1113.58 1131.47 1115.78 1133.67 1115.78 1136.38L1115.78 1175.62C1115.78 1178.33 1113.58 1180.53 1110.87 1180.53L1071.62 1180.53C1068.92 1180.53 1066.72 1178.33 1066.72 1175.62Z" fill="#40C4FF"/><path d="M1110.87 1182.98 1071.62 1182.98C1067.57 1182.98 1064.27 1179.68 1064.27 1175.62L1064.27 1136.38C1064.27 1132.32 1067.57 1129.02 1071.62 1129.02L1110.87 1129.02C1114.93 1129.02 1118.23 1132.32 1118.23 1136.38L1118.23 1175.62C1118.23 1179.68 1114.93 1182.98 1110.87 1182.98ZM1071.62 1133.92C1070.27 1133.92 1069.17 1135.02 1069.17 1136.38L1069.17 1175.62C1069.17 1176.98 1070.27 1178.08 1071.62 1178.08L1110.87 1178.08C1112.23 1178.08 1113.33 1176.98 1113.33 1175.62L1113.33 1136.38C1113.33 1135.02 1112.23 1133.92 1110.87 1133.92L1071.62 1133.92ZM1096.06 1119.2C1094.71 1119.2 1093.61 1118.1 1093.61 1116.74 1093.61 1116.47 1093.66 1116.2 1093.74 1115.95 1094.94 1112.47 1096.33 1108.99 1097.85 1105.63 1098.48 1104.43 1099.97 1103.97 1101.17 1104.6 1102.27 1105.18 1102.76 1106.49 1102.32 1107.65 1100.85 1110.89 1099.54 1114.19 1098.38 1117.55 1098.04 1118.54 1097.11 1119.21 1096.06 1119.2ZM1104.94 1099.57C1103.58 1099.57 1102.48 1098.48 1102.48 1097.12 1102.48 1096.7 1102.59 1096.28 1102.8 1095.91 1113.7 1076.73 1129.65 1060.9 1148.92 1050.16 1150.12 1049.53 1151.61 1049.99 1152.23 1051.19 1152.84 1052.35 1152.43 1053.78 1151.31 1054.44 1132.82 1064.75 1117.52 1079.93 1107.06 1098.33 1106.63 1099.1 1105.82 1099.58 1104.94 1099.57ZM1159.94 1049.87C1158.58 1049.87 1157.49 1048.77 1157.49 1047.41 1157.49 1046.44 1158.06 1045.57 1158.95 1045.17 1162.21 1043.74 1165.58 1042.43 1168.96 1041.29 1170.23 1040.81 1171.65 1041.44 1172.13 1042.71 1172.61 1043.98 1171.97 1045.39 1170.71 1045.87 1170.65 1045.9 1170.59 1045.92 1170.53 1045.93 1167.27 1047.03 1164.07 1048.28 1160.92 1049.66 1160.61 1049.8 1160.28 1049.87 1159.94 1049.87ZM1314.64 1206.18C1313.28 1206.17 1312.18 1205.08 1312.19 1203.72 1312.19 1203.37 1312.26 1203.03 1312.4 1202.71 1313.86 1199.5 1315.19 1196.17 1316.34 1192.82 1316.8 1191.54 1318.2 1190.87 1319.47 1191.32 1320.74 1191.77 1321.41 1193.15 1320.98 1194.42 1319.77 1197.91 1318.39 1201.39 1316.87 1204.74 1316.47 1205.62 1315.6 1206.18 1314.64 1206.18ZM1264.61 1260.52C1263.25 1260.52 1262.16 1259.42 1262.16 1258.07 1262.16 1257.18 1262.64 1256.36 1263.41 1255.93 1281.9 1245.62 1297.2 1230.44 1307.66 1212.03 1308.33 1210.86 1309.83 1210.44 1311.01 1211.11 1312.18 1211.78 1312.6 1213.28 1311.93 1214.46 1301.03 1233.64 1285.08 1249.47 1265.81 1260.21 1265.44 1260.41 1265.03 1260.52 1264.61 1260.52ZM1244.98 1269.21C1243.62 1269.21 1242.53 1268.1 1242.53 1266.75 1242.54 1265.7 1243.2 1264.78 1244.19 1264.44 1247.45 1263.34 1250.65 1262.09 1253.8 1260.71 1255.04 1260.16 1256.49 1260.73 1257.03 1261.97 1257.58 1263.2 1257.02 1264.65 1255.78 1265.2 1252.5 1266.64 1249.13 1267.95 1245.76 1269.08 1245.51 1269.17 1245.24 1269.21 1244.98 1269.21ZM1255.9 1050.36C1255.56 1050.36 1255.21 1050.29 1254.89 1050.14 1251.66 1048.68 1248.36 1047.36 1245 1046.2 1243.73 1045.73 1243.09 1044.31 1243.56 1043.04 1244.02 1041.82 1245.35 1041.17 1246.6 1041.57 1250.08 1042.77 1253.55 1044.15 1256.91 1045.67 1258.15 1046.23 1258.69 1047.69 1258.13 1048.92 1257.73 1049.8 1256.86 1050.36 1255.9 1050.36ZM1310.25 1100.39C1309.36 1100.39 1308.54 1099.91 1308.11 1099.14 1297.8 1080.65 1282.62 1065.34 1264.21 1054.89 1263.04 1054.22 1262.62 1052.72 1263.29 1051.54 1263.96 1050.36 1265.46 1049.95 1266.64 1050.62 1285.82 1061.52 1301.65 1077.47 1312.39 1096.74 1313.05 1097.92 1312.63 1099.41 1311.45 1100.08 1311.09 1100.28 1310.67 1100.39 1310.25 1100.39ZM1318.94 1120.02C1317.89 1120.02 1316.96 1119.35 1316.62 1118.35 1315.52 1115.1 1314.28 1111.89 1312.89 1108.75 1312.37 1107.5 1312.96 1106.06 1314.21 1105.54 1315.42 1105.03 1316.82 1105.57 1317.38 1106.77 1318.82 1110.04 1320.13 1113.41 1321.26 1116.79 1321.7 1118.07 1321 1119.46 1319.72 1119.9 1319.47 1119.98 1319.21 1120.02 1318.94 1120.02ZM1168.93 1268.94C1168.66 1268.94 1168.39 1268.89 1168.13 1268.8 1164.63 1267.6 1161.19 1266.22 1157.81 1264.69 1156.58 1264.13 1156.03 1262.68 1156.59 1261.45 1157.15 1260.21 1158.61 1259.66 1159.84 1260.22 1163.07 1261.69 1166.37 1263 1169.73 1264.16 1171.01 1264.62 1171.68 1266.02 1171.22 1267.3 1170.88 1268.27 1169.96 1268.93 1168.93 1268.94ZM1149.3 1260.06C1148.88 1260.06 1148.46 1259.95 1148.09 1259.74 1128.9 1248.85 1113.08 1232.89 1102.33 1213.62 1101.64 1212.46 1102.03 1210.95 1103.19 1210.26 1104.36 1209.57 1105.86 1209.96 1106.55 1211.12 1106.58 1211.16 1106.6 1211.2 1106.62 1211.23 1116.92 1229.72 1132.11 1245.03 1150.51 1255.48 1151.69 1256.15 1152.1 1257.65 1151.44 1258.83 1151.44 1258.83 1151.44 1258.83 1151.43 1258.83 1150.99 1259.59 1150.18 1260.06 1149.3 1260.06ZM1099.6 1205.06C1098.62 1205.06 1097.74 1204.49 1097.35 1203.6 1095.9 1200.32 1094.61 1196.98 1093.46 1193.58 1092.98 1192.32 1093.62 1190.9 1094.89 1190.42 1096.15 1189.94 1097.57 1190.57 1098.05 1191.84 1098.07 1191.9 1098.09 1191.96 1098.11 1192.02 1099.2 1195.26 1100.46 1198.49 1101.84 1201.62 1102.38 1202.86 1101.82 1204.31 1100.58 1204.86 1100.27 1204.99 1099.93 1205.06 1099.6 1205.06ZM1164.84 1158.45 1125.59 1158.45C1124.24 1158.45 1123.14 1157.35 1123.14 1156 1123.14 1154.65 1124.24 1153.55 1125.59 1153.55L1164.84 1153.55C1166.2 1153.55 1167.3 1154.65 1167.3 1156 1167.3 1157.35 1166.2 1158.45 1164.84 1158.45ZM1292.41 1158.45 1253.16 1158.45C1251.8 1158.45 1250.7 1157.35 1250.7 1156 1250.7 1154.65 1251.8 1153.55 1253.16 1153.55L1292.41 1153.55C1293.76 1153.55 1294.86 1154.65 1294.86 1156 1294.86 1157.35 1293.76 1158.45 1292.41 1158.45Z" fill="#263238"/><path d="M1209 1114.3C1207.65 1114.3 1206.55 1113.2 1206.55 1111.84L1206.55 1072.59C1206.55 1071.24 1207.65 1070.14 1209 1070.14 1210.35 1070.14 1211.45 1071.24 1211.45 1072.59L1211.45 1111.84C1211.45 1113.2 1210.35 1114.3 1209 1114.3Z" fill="#263238"/><path d="M1209 1241.86C1207.65 1241.86 1206.55 1240.76 1206.55 1239.41L1206.55 1200.16C1206.55 1198.8 1207.65 1197.7 1209 1197.7 1210.35 1197.7 1211.45 1198.8 1211.45 1200.16L1211.45 1239.41C1211.45 1240.76 1210.35 1241.86 1209 1241.86Z" fill="#263238"/><path d="M1231.08 1141.28 1204.09 1141.28C1202.74 1141.28 1201.64 1140.18 1201.64 1138.83 1201.64 1137.47 1202.74 1136.38 1204.09 1136.38L1231.08 1136.38C1232.43 1136.38 1233.53 1137.47 1233.53 1138.83 1233.53 1140.18 1232.43 1141.28 1231.08 1141.28Z" fill="#263238"/><path d="M1231.08 1158.45 1186.92 1158.45C1185.57 1158.45 1184.47 1157.35 1184.47 1156 1184.47 1154.65 1185.57 1153.55 1186.92 1153.55L1231.08 1153.55C1232.43 1153.55 1233.53 1154.65 1233.53 1156 1233.53 1157.35 1232.43 1158.45 1231.08 1158.45Z" fill="#263238"/><path d="M1231.08 1175.62 1186.92 1175.62C1185.57 1175.62 1184.47 1174.53 1184.47 1173.17 1184.47 1171.82 1185.57 1170.72 1186.92 1170.72L1231.08 1170.72C1232.43 1170.72 1233.53 1171.82 1233.53 1173.17 1233.53 1174.53 1232.43 1175.62 1231.08 1175.62Z" fill="#263238"/></g></g></g><text font-family="Arial,Arial_MSFontService,sans-serif" font-weight="700" font-size="55" transform="matrix(1 0 0 1 1143.76 1383)">VDR</text><g><g><g><path d="M285.787 1046.57 285.787 1064.96 299.573 1064.96C304.65 1064.89 308.821 1068.95 308.89 1074.02 308.959 1079.1 304.9 1083.27 299.824 1083.34 299.74 1083.34 299.657 1083.34 299.573 1083.34L285.787 1083.34 285.787 1087.94C285.786 1093.01 281.67 1097.13 276.594 1097.13L267.404 1097.13C262.327 1097.13 258.212 1093.01 258.212 1087.93L258.212 982.234 285.788 982.234 285.788 1028.19 299.575 1028.19C304.651 1028.12 308.822 1032.18 308.892 1037.26 308.961 1042.33 304.902 1046.51 299.825 1046.57 299.742 1046.58 299.658 1046.58 299.575 1046.57L285.787 1046.57Z" fill="#D6A154"/><path d="M345.531 906.735 345.531 975.013C345.531 986.615 336.124 996.023 324.522 996.023L285.787 996.023C285.787 1011.25 273.441 1023.6 258.212 1023.6L258.212 996.023 219.478 996.023C207.876 996.023 198.47 986.615 198.47 975.012L198.47 906.735C198.47 895.131 207.876 885.726 219.48 885.726L324.522 885.726C336.126 885.726 345.533 895.131 345.533 906.735Z" fill="#FED766"/><path d="M261.66 959.027 261.66 959.487C261.659 961.391 260.116 962.933 258.212 962.933 256.31 962.932 254.767 961.39 254.767 959.487L254.767 959.027C254.767 957.123 256.311 955.58 258.214 955.581 260.117 955.581 261.659 957.124 261.66 959.027ZM272 955.58C270.096 955.58 268.553 957.123 268.553 959.027L268.553 959.487C268.553 961.391 270.096 962.934 272 962.934 273.903 962.934 275.447 961.391 275.447 959.487L275.447 959.027C275.447 957.123 273.903 955.58 272 955.58ZM285.787 955.58C283.884 955.581 282.342 957.124 282.342 959.027L282.342 959.487C282.384 961.39 283.961 962.899 285.864 962.856 287.708 962.815 289.192 961.331 289.233 959.487L289.233 959.027C289.233 957.124 287.691 955.581 285.788 955.58ZM244.425 925.938 299.573 925.938C301.477 925.938 303.02 924.394 303.019 922.491 303.019 920.588 301.476 919.045 299.573 919.045L244.425 919.045C242.521 919.045 240.979 920.589 240.979 922.492 240.98 924.395 242.522 925.938 244.425 925.938ZM299.575 937.427 244.425 937.427C242.521 937.428 240.979 938.971 240.979 940.875 240.98 942.778 242.522 944.32 244.425 944.321L299.572 944.321C301.475 944.32 303.018 942.777 303.017 940.873 303.017 938.97 301.474 937.428 299.572 937.427Z" fill="#AD8653"/><path d="M324.522 882.279 219.478 882.279C205.993 882.279 195.022 893.25 195.022 906.735L195.022 975.013C195.022 988.498 205.993 999.469 219.478 999.469L254.767 999.469 254.767 1087.94C254.767 1094.9 260.435 1100.57 267.404 1100.57L276.596 1100.57C283.564 1100.57 289.233 1094.9 289.233 1087.94L289.233 1086.79 299.575 1086.79C306.542 1086.79 312.212 1081.12 312.212 1074.15 312.212 1067.18 306.542 1061.51 299.575 1061.51L289.233 1061.51 289.233 1050.02 299.575 1050.02C306.542 1050.02 312.212 1044.35 312.212 1037.38 312.212 1030.41 306.542 1024.75 299.575 1024.75L289.233 1024.75 289.233 999.469 324.522 999.469C338.007 999.469 348.978 988.498 348.978 975.013L348.978 906.735C348.978 893.25 338.007 882.279 324.522 882.279ZM299.575 1031.64C302.746 1031.64 305.316 1034.21 305.319 1037.38 305.315 1040.56 302.745 1043.13 299.573 1043.13L285.787 1043.13C283.884 1043.13 282.342 1044.67 282.342 1046.57 282.342 1046.57 282.342 1046.57 282.342 1046.57L282.342 1064.96C282.341 1066.86 283.882 1068.4 285.785 1068.4 285.785 1068.4 285.786 1068.4 285.787 1068.4L299.573 1068.4C302.745 1068.41 305.315 1070.98 305.319 1074.15 305.316 1077.32 302.745 1079.89 299.573 1079.89L285.787 1079.89C283.884 1079.89 282.342 1081.44 282.342 1083.34 282.342 1083.34 282.342 1083.34 282.342 1083.34L282.342 1087.94C282.338 1091.11 279.766 1093.68 276.594 1093.68L267.404 1093.68C264.233 1093.68 261.664 1091.11 261.66 1087.94L261.66 1026.85C269.986 1025.93 277.329 1021.69 282.34 1015.5L282.34 1028.19C282.339 1030.09 283.881 1031.64 285.783 1031.64 285.784 1031.64 285.785 1031.64 285.787 1031.64L299.573 1031.64ZM342.084 975.013C342.084 984.697 334.205 992.576 324.522 992.576L285.787 992.576C283.884 992.576 282.342 994.118 282.342 996.021 282.342 1008.15 273.337 1018.23 261.66 1019.9L261.66 996.023C261.661 994.12 260.119 992.577 258.217 992.576 258.216 992.576 258.214 992.576 258.213 992.576L219.478 992.576C209.794 992.576 201.917 984.697 201.917 975.013L201.917 906.735C201.917 897.052 209.794 889.172 219.478 889.172L324.524 889.172C334.205 889.172 342.084 897.052 342.084 906.735L342.084 975.013Z" fill="#4C4C4C"/></g></g></g><text font-family="Arial,Arial_MSFontService,sans-serif" font-weight="700" font-size="55" transform="matrix(1 0 0 1 150.905 1169)">Secret key</text><path d="M0-3.4375 317.854-3.4375 317.854 187.057 314.417 183.62 605.917 183.62 605.917 190.495 310.979 190.495 310.979 0 314.417 3.4375 0 3.4375ZM601.333 173.307 628.833 187.057 601.333 200.807Z" fill="#747474" transform="matrix(1 -1.22465e-16 -1.22465e-16 -1 430.5 1386.56)"/><g><g><g><path d="M329.288 1349 336.056 1342.23C340.888 1337.44 347.392 1334.7 354.2 1334.6L355.784 1316.65 360.824 1257.8C361.239 1254.25 358.693 1251.03 355.138 1250.61 355.098 1250.61 355.057 1250.6 355.016 1250.6L223.208 1239.08C219.686 1238.77 216.578 1241.37 216.248 1244.89L214.664 1263.22 214.664 1350.58 327.752 1350.58Z" fill="#FFC670"/><path d="M331.928 1258.42 199.592 1258.42C193.426 1258.45 188.434 1263.44 188.408 1269.61L188.408 1449.13C188.434 1455.29 193.426 1460.29 199.592 1460.31L274.52 1460.31C276.867 1460.35 278.898 1458.69 279.32 1456.38 280.061 1452.07 282.105 1448.1 285.176 1445L289.112 1441.02C290.973 1439.14 290.973 1436.12 289.112 1434.25L285.176 1430.6C276.733 1422.17 276.72 1408.5 285.147 1400.05 285.157 1400.04 285.166 1400.03 285.176 1400.02L291.8 1393.02C297.362 1387.49 304.797 1384.25 312.632 1383.94 313.818 1383.9 314.946 1383.42 315.8 1382.6L322.04 1376.36C322.874 1375.49 323.368 1374.35 323.432 1373.14 323.697 1365.3 326.941 1357.85 332.504 1352.31L339.272 1345.54C339.622 1345.18 340.008 1344.86 340.424 1344.58L341.144 1344.01C342.272 1343.09 342.925 1341.72 342.92 1340.26L342.92 1269.61C342.921 1263.51 338.03 1258.53 331.928 1258.42Z" fill="#FFF6E6"/><path d="M279.992 1453.45C281.019 1450.26 282.797 1447.36 285.176 1445L289.112 1441.02C290.973 1439.14 290.973 1436.12 289.112 1434.25L285.176 1430.6C279.905 1425.31 277.745 1417.66 279.464 1410.39 265.343 1416.06 250.231 1418.85 235.016 1418.6 220.932 1418.8 206.881 1417.19 193.208 1413.8L193.208 1447.4C193.208 1450.93 196.066 1453.78 199.592 1453.78Z" fill="#FFEBCC"/><path d="M354.771 1360.76 400.011 1406 393.224 1412.8C389.475 1416.54 383.398 1416.54 379.65 1412.8L347.979 1381.13C344.232 1377.38 344.232 1371.3 347.979 1367.55L354.771 1360.76Z" fill="#F6716F"/><path d="M349.4 1382.6 362.888 1368.97 354.872 1360.95 347.96 1367.53C344.209 1371.27 344.206 1377.35 347.952 1381.1 347.955 1381.11 347.958 1381.11 347.96 1381.11Z" fill="#F6A2A2"/><path d="M358.04 1391.19 379.64 1412.79C383.387 1416.54 389.465 1416.55 393.216 1412.8 393.219 1412.8 393.222 1412.79 393.224 1412.79L399.992 1406.02 371.624 1377.8Z" fill="#F0504D"/><path d="M320.806 1408.27 352.477 1439.94C356.224 1443.68 356.224 1449.76 352.477 1453.51L345.685 1460.3 300.445 1415.06 307.232 1408.27C310.981 1404.52 317.058 1404.52 320.806 1408.27Z" fill="#F6716F"/><path d="M322.04 1409.48 320.6 1408.28C316.853 1404.53 310.775 1404.53 307.024 1408.27 307.021 1408.27 307.019 1408.28 307.016 1408.28L300.44 1415.05 308.456 1423.06Z" fill="#F6A2A2"/><path d="M330.872 1418.36 317.288 1431.94 345.704 1460.31 352.472 1453.54C356.223 1449.8 356.227 1443.72 352.48 1439.97 352.477 1439.96 352.475 1439.96 352.472 1439.96Z" fill="#F0504D"/><path d="M347.931 1381.13 379.597 1412.8 352.443 1439.95 320.778 1408.28Z" fill="#F6716F"/><path d="M347.941 1381.11 355.174 1388.34 328.021 1415.49 320.792 1408.27Z" fill="#F6A2A2"/><path d="M339.147 1426.56 366.296 1399.4 379.669 1412.77 352.515 1439.93Z" fill="#F0504D"/><path d="M278.408 1294.04C281.059 1294.04 283.208 1291.89 283.208 1289.24 283.208 1286.59 281.059 1284.44 278.408 1284.44L253.112 1284.44C250.461 1284.44 248.312 1286.59 248.312 1289.24 248.312 1291.89 250.461 1294.04 253.112 1294.04ZM305.624 1311.66 225.896 1311.66C223.245 1311.66 221.096 1313.8 221.096 1316.46 221.096 1319.11 223.245 1321.26 225.896 1321.26L305.624 1321.26C308.275 1321.26 310.424 1319.11 310.424 1316.46 310.424 1313.8 308.275 1311.66 305.624 1311.66ZM305.624 1335.85 225.896 1335.85C223.245 1335.85 221.096 1338 221.096 1340.65 221.096 1343.3 223.245 1345.45 225.896 1345.45L305.624 1345.45C308.275 1345.45 310.424 1343.3 310.424 1340.65 310.424 1338 308.275 1335.85 305.624 1335.85ZM403.4 1402.62 358.136 1357.35C356.264 1355.49 353.24 1355.49 351.368 1357.35L344.6 1364.17C340.325 1368.48 339.211 1375 341.816 1380.49L320.216 1402.09C314.733 1399.48 308.206 1400.6 303.896 1404.87L297.08 1411.69C295.219 1413.56 295.219 1416.58 297.08 1418.46L316.28 1437.66 297.08 1456.86C295.198 1458.74 295.198 1461.79 297.08 1463.67 298.962 1465.55 302.014 1465.55 303.896 1463.67L323.096 1444.47 342.296 1463.67C344.168 1465.53 347.192 1465.53 349.064 1463.67L355.88 1456.86C360.155 1452.55 361.269 1446.02 358.664 1440.54L380.264 1418.94C385.747 1421.54 392.275 1420.43 396.584 1416.15L403.4 1409.34C405.23 1407.47 405.23 1404.48 403.4 1402.62ZM349.064 1450.14 345.704 1453.54 307.304 1415.14 310.712 1411.78C312.584 1409.92 315.608 1409.92 317.48 1411.78L349.16 1443.46C350.932 1445.35 350.889 1448.3 349.064 1450.14ZM352.472 1433.14 327.608 1408.28 347.96 1387.93 372.824 1412.79ZM389.816 1409.14C387.944 1411.01 384.92 1411.01 383.048 1409.14L351.368 1377.8C349.507 1375.93 349.507 1372.9 351.368 1371.03L354.728 1367.62 393.128 1406.02Z" fill="#3D3D63"/><path d="M274.52 1450.71 199.592 1450.71C198.717 1450.71 198.008 1450 198.008 1449.13L198.008 1269.61C198.008 1268.73 198.717 1268.02 199.592 1268.02L331.928 1268.02C332.803 1268.02 333.512 1268.73 333.512 1269.61L333.512 1340.22C333.513 1342.87 335.662 1345.02 338.313 1345.01 340.963 1345.01 343.111 1342.87 343.112 1340.22L343.112 1269.61C343.112 1263.43 338.105 1258.42 331.928 1258.42L219.8 1258.42 220.952 1245.32C221.028 1244.45 221.795 1243.8 222.667 1243.88 222.671 1243.88 222.676 1243.88 222.68 1243.88L354.488 1255.4C355.36 1255.48 356.005 1256.24 355.929 1257.11 355.929 1257.12 355.928 1257.12 355.928 1257.13L349.208 1333.93C348.969 1336.58 350.925 1338.92 353.576 1339.16 356.227 1339.4 358.569 1337.44 358.808 1334.79L365.528 1257.99C366.081 1251.84 361.542 1246.4 355.391 1245.85 355.378 1245.85 355.365 1245.85 355.352 1245.85L223.592 1234.33C217.467 1233.78 212.054 1238.3 211.503 1244.42 211.501 1244.45 211.498 1244.48 211.496 1244.5L210.2 1258.42 199.592 1258.42C193.426 1258.45 188.434 1263.44 188.408 1269.61L188.408 1449.13C188.434 1455.29 193.426 1460.29 199.592 1460.31L274.52 1460.31C277.171 1460.31 279.321 1458.16 279.321 1455.51 279.322 1452.86 277.173 1450.71 274.522 1450.71 274.522 1450.71 274.521 1450.71 274.52 1450.71Z" fill="#3D3D63"/></g></g></g><text font-family="Arial,Arial_MSFontService,sans-serif" font-weight="700" font-size="55" transform="matrix(1 0 0 1 161.478 1542)">DID Doc</text><path d="M431.5 993.5 519.103 993.5" stroke="#747474" stroke-width="6.875" stroke-miterlimit="8" fill="none" fill-rule="evenodd"/><path d="M522.54 991.5 522.54 1318.97 454.4 1319.21 454.376 1312.33 519.091 1312.1 515.665 1315.54 515.665 991.5ZM459.654 1329.27 431.5 1316.92 458.277 1301.81Z" fill="#747474"/></g></svg>